<?xml version="1.0" encoding="UTF-8" standalone="no"?>
<svg
   xmlns:dc="http://purl.org/dc/elements/1.1/"
   xmlns:cc="http://creativecommons.org/ns#"
   xmlns:rdf="http://www.w3.org/1999/02/22-rdf-syntax-ns#"
   xmlns:svg="http://www.w3.org/2000/svg"
   xmlns="http://www.w3.org/2000/svg"
   xmlns:sodipodi="http://sodipodi.sourceforge.net/DTD/sodipodi-0.dtd"
   xmlns:inkscape="http://www.inkscape.org/namespaces/inkscape"
   width="13.361423mm"
   height="14.503647mm"
   viewBox="0 0 13.361423 14.503647"
   version="1.1"
   id="svg6822"
   inkscape:version="1.0.1 (c497b03c, 2020-09-10)"
   sodipodi:docname="grownAtHomeLogo.svg">
  <defs
     id="defs6816">
    <clipPath
       clipPathUnits="userSpaceOnUse"
       id="clipPath28">
      <path
         d="M 0,500 H 500 V 0 H 0 Z"
         id="path26" />
    </clipPath>
    <clipPath
       clipPathUnits="userSpaceOnUse"
       id="clipPath80">
      <path
         d="m 191.338,288.892 h 0.416 v -0.403 h -0.416 z"
         id="path78" />
    </clipPath>
    <clipPath
       clipPathUnits="userSpaceOnUse"
       id="clipPath100">
      <path
         d="m 191.96,289.314 h 0.465 v -0.449 h -0.465 z"
         id="path98" />
    </clipPath>
    <clipPath
       clipPathUnits="userSpaceOnUse"
       id="clipPath120">
      <path
         d="m 192.501,289.827 h 0.474 v -0.458 h -0.474 z"
         id="path118" />
    </clipPath>
    <clipPath
       clipPathUnits="userSpaceOnUse"
       id="clipPath140">
      <path
         d="m 193.107,290.408 h 0.455 v -0.441 h -0.455 z"
         id="path138" />
    </clipPath>
    <clipPath
       clipPathUnits="userSpaceOnUse"
       id="clipPath160">
      <path
         d="m 193.56,290.983 h 0.417 v -0.403 h -0.417 z"
         id="path158" />
    </clipPath>
    <clipPath
       clipPathUnits="userSpaceOnUse"
       id="clipPath180">
      <path
         d="m 193.845,291.446 h 0.264 v -0.256 h -0.264 z"
         id="path178" />
    </clipPath>
    <clipPath
       clipPathUnits="userSpaceOnUse"
       id="clipPath200">
      <path
         d="m 190.688,288.515 h 0.309 v -0.299 h -0.309 z"
         id="path198" />
    </clipPath>
    <clipPath
       clipPathUnits="userSpaceOnUse"
       id="clipPath268">
      <path
         d="m 180.875,289.539 h 0.416 v -0.403 h -0.416 z"
         id="path266" />
    </clipPath>
    <clipPath
       clipPathUnits="userSpaceOnUse"
       id="clipPath288">
      <path
         d="m 180.204,289.961 h 0.465 v -0.449 h -0.465 z"
         id="path286" />
    </clipPath>
    <clipPath
       clipPathUnits="userSpaceOnUse"
       id="clipPath308">
      <path
         d="m 179.654,290.474 h 0.474 v -0.458 h -0.474 z"
         id="path306" />
    </clipPath>
    <clipPath
       clipPathUnits="userSpaceOnUse"
       id="clipPath328">
      <path
         d="m 179.067,291.055 h 0.455 v -0.441 h -0.455 z"
         id="path326" />
    </clipPath>
    <clipPath
       clipPathUnits="userSpaceOnUse"
       id="clipPath348">
      <path
         d="m 178.652,291.631 h 0.417 v -0.403 h -0.417 z"
         id="path346" />
    </clipPath>
    <clipPath
       clipPathUnits="userSpaceOnUse"
       id="clipPath368">
      <path
         d="m 178.52,292.093 h 0.264 v -0.255 h -0.264 z"
         id="path366" />
    </clipPath>
    <clipPath
       clipPathUnits="userSpaceOnUse"
       id="clipPath388">
      <path
         d="m 181.632,289.162 h 0.309 v -0.299 h -0.309 z"
         id="path386" />
    </clipPath>
    <clipPath
       clipPathUnits="userSpaceOnUse"
       id="clipPath508">
      <path
         d="m 181.237,290.409 h 1.186 v -1.982 h -1.186 z"
         id="path506" />
    </clipPath>
    <clipPath
       clipPathUnits="userSpaceOnUse"
       id="clipPath524">
      <path
         d="m 183.606,291.343 h 1.26 v -1 h -1.26 z"
         id="path522" />
    </clipPath>
  </defs>
  <sodipodi:namedview
     id="base"
     pagecolor="#ffffff"
     bordercolor="#666666"
     borderopacity="1.0"
     inkscape:pageopacity="0.0"
     inkscape:pageshadow="2"
     inkscape:zoom="2.6007486"
     inkscape:cx="9.7924438"
     inkscape:cy="27.564298"
     inkscape:document-units="mm"
     inkscape:current-layer="layer1"
     inkscape:document-rotation="0"
     showgrid="false"
     inkscape:window-width="1252"
     inkscape:window-height="943"
     inkscape:window-x="334"
     inkscape:window-y="76"
     inkscape:window-maximized="0" />
  <metadata
     id="metadata6819">
    <rdf:RDF>
      <cc:Work
         rdf:about="">
        <dc:format>image/svg+xml</dc:format>
        <dc:type
           rdf:resource="http://purl.org/dc/dcmitype/StillImage" />
        <dc:title></dc:title>
      </cc:Work>
    </rdf:RDF>
  </metadata>
  <g
     inkscape:label="Layer 1"
     inkscape:groupmode="layer"
     id="layer1"
     transform="translate(-173.9919,-184.00413)">
    <g
       id="g22"
       transform="matrix(0.35277777,0,0,-0.35277777,115.29307,297.67936)">
      <g
         id="g24"
         clip-path="url(#clipPath28)">
        <g
           id="g30"
           transform="translate(194.4501,290.0571)">
          <path
             d="m 0,0 c -0.061,-0.186 -0.137,-0.384 -0.233,-0.582 -0.004,-0.005 -0.011,-0.007 -0.016,-0.012 l -0.002,-0.002 c -0.35,-0.261 -0.71,-0.503 -1.085,-0.724 0,0 0,-0.002 -0.002,-0.002 -0.077,-0.047 -0.156,-0.093 -0.236,-0.138 h -0.002 c -0.079,-0.046 -0.154,-0.088 -0.233,-0.13 0,-0.002 -0.004,-0.002 -0.004,-0.002 -0.079,-0.042 -0.159,-0.084 -0.24,-0.126 -0.04,-0.021 -0.079,-0.039 -0.119,-0.06 -0.004,-0.003 -0.007,-0.005 -0.011,-0.005 -0.066,-0.033 -0.131,-0.065 -0.196,-0.096 0.081,0.089 0.165,0.184 0.244,0.282 l 0.005,0.005 c 0.007,0.007 0.012,0.014 0.019,0.018 v 0.005 c 0.007,0.007 0.009,0.012 0.016,0.016 0.012,0.017 0.023,0.033 0.037,0.049 0,0.003 0.003,0.003 0.003,0.003 0.058,0.074 0.116,0.151 0.172,0.23 0.053,0.074 0.105,0.149 0.153,0.226 0.003,0.004 0.005,0.007 0.007,0.011 0.003,0.005 0.007,0.012 0.01,0.017 h 0.002 c 0.107,0.174 0.212,0.351 0.307,0.526 0.014,0.021 0.026,0.044 0.038,0.065 0.002,0.005 0.004,0.012 0.007,0.016 0.009,0.014 0.016,0.026 0.021,0.04 0.055,0.1 0.107,0.198 0.155,0.296 0.061,0.118 0.117,0.235 0.17,0.349 0.005,0.011 0.01,0.023 0.014,0.032 0.003,0.003 0.003,0.005 0.005,0.007 0.005,0.014 0.012,0.028 0.019,0.04 0.042,0.098 0.083,0.191 0.121,0.279 0.046,0.103 0.086,0.198 0.123,0.291 0,0.002 0.002,0.007 0.005,0.012 0,0.002 0.002,0.004 0.004,0.009 0.007,0.023 0.019,0.049 0.028,0.072 0.005,0.014 0.012,0.031 0.017,0.044 0.028,0.07 0.051,0.138 0.074,0.198 0.012,0.033 0.021,0.065 0.033,0.093 0.002,0.007 0.004,0.014 0.007,0.021 0,0.005 0.002,0.01 0.002,0.014 0.016,0.042 0.028,0.08 0.037,0.112 0.003,0.009 0.005,0.016 0.01,0.023 0.011,0.042 0.021,0.077 0.028,0.107 0,0.003 0.002,0.003 0.002,0.005 v 0.002 c 0.004,0.021 0.009,0.04 0.014,0.056 0,0.003 0.002,0.003 0,0.005 0.002,0.019 0.004,0.035 0.004,0.046 v 0.012 c -0.002,0.009 0,0.016 0.005,0.021 0.009,0.007 0.028,0.007 0.054,-0.005 0.023,-0.004 0.051,-0.018 0.081,-0.037 0.051,-0.03 0.114,-0.072 0.175,-0.128 C -0.065,1.529 0.021,1.429 0.081,1.315 0.119,1.245 0.144,1.171 0.156,1.094 0.193,0.852 0.147,0.454 0,0"
             style="fill:#7eb341;fill-opacity:1;fill-rule:nonzero;stroke:none"
             id="path32" />
        </g>
        <g
           id="g34"
           transform="translate(189.9627,288.2928)">
          <path
             d="M 0,0 C 0,0 1.151,0.402 2.053,1.197 3.168,2.179 4.033,3.396 4.042,3.521 4.051,3.646 4.516,3.161 4.454,2.71 4.391,2.26 3.908,1.374 3.076,0.713 2.245,0.051 1.272,-0.554 0.385,-0.383 0.123,-0.332 0,0 0,0"
             style="fill:#6dac0f;fill-opacity:1;fill-rule:nonzero;stroke:none"
             id="path36" />
        </g>
        <g
           id="g38"
           transform="translate(194.3965,291.0068)">
          <path
             d="m 0,0 c -0.056,-0.396 -0.47,-1.21 -1.229,-1.869 -0.044,-0.04 -0.091,-0.079 -0.14,-0.117 -0.186,-0.146 -0.4,-0.309 -0.633,-0.465 0,0 -0.002,0 -0.002,-0.003 -0.014,-0.006 -0.026,-0.016 -0.042,-0.025 -0.512,-0.338 -1.113,-0.629 -1.69,-0.629 -0.037,0 -0.077,0.003 -0.114,0.005 -0.068,0.005 -0.133,0.014 -0.196,0.026 -0.088,0.018 -0.16,0.072 -0.219,0.13 -0.079,0.084 -0.125,0.182 -0.144,0.221 0.147,0.056 1.092,0.415 1.895,1.069 0.037,0.03 0.072,0.06 0.107,0.093 0.014,0.009 0.026,0.021 0.04,0.032 0.014,0.012 0.028,0.026 0.042,0.038 0.095,0.086 0.19,0.172 0.281,0.26 0.587,0.564 1.073,1.153 1.371,1.555 0.005,0.012 0.012,0.023 0.021,0.033 0.044,0.063 0.086,0.121 0.119,0.172 l 0.002,0.002 c 0.012,0.017 0.024,0.033 0.033,0.049 0.025,0.04 0.046,0.075 0.065,0.103 0,0.002 0.002,0.002 0.002,0.004 v 0.003 c 0.035,0.06 0.054,0.102 0.056,0.121 0.014,0 0.058,-0.028 0.121,-0.1 0.038,-0.042 0.079,-0.1 0.119,-0.17 0.007,-0.01 0.012,-0.019 0.016,-0.031 C -0.037,0.363 0.026,0.179 0,0 M -0.065,0.493 C -0.072,0.507 -0.079,0.521 -0.086,0.535 -0.128,0.612 -0.177,0.68 -0.223,0.733 -0.235,0.747 -0.251,0.766 -0.272,0.784 -0.305,0.815 -0.345,0.845 -0.375,0.845 -0.386,0.845 -0.4,0.84 -0.407,0.826 -0.407,0.819 -0.41,0.815 -0.41,0.808 -0.41,0.803 -0.412,0.798 -0.412,0.794 -0.419,0.773 -0.435,0.743 -0.461,0.701 -0.47,0.682 -0.484,0.661 -0.498,0.638 -0.5,0.638 -0.503,0.635 -0.503,0.633 -0.514,0.615 -0.528,0.594 -0.545,0.57 -0.556,0.552 -0.57,0.531 -0.587,0.507 -0.854,0.123 -1.401,-0.563 -2.062,-1.199 -2.151,-1.283 -2.239,-1.366 -2.332,-1.448 -2.351,-1.467 -2.372,-1.485 -2.393,-1.504 -2.402,-1.511 -2.409,-1.518 -2.419,-1.525 -2.447,-1.55 -2.477,-1.576 -2.507,-1.599 -3.378,-2.319 -4.43,-2.691 -4.439,-2.696 l -0.019,-0.007 0.005,-0.018 c 0.005,-0.007 0.042,-0.11 0.121,-0.207 0.065,-0.082 0.156,-0.163 0.279,-0.187 0.038,-0.007 0.075,-0.014 0.114,-0.016 0.068,-0.009 0.135,-0.014 0.203,-0.014 0.566,0 1.15,0.273 1.655,0.598 l 0.005,0.005 c 0.007,0 0.009,0.002 0.014,0.007 0.265,0.17 0.507,0.354 0.717,0.519 0.107,0.084 0.207,0.172 0.3,0.263 0.002,0 0.002,0.002 0.002,0.002 0.666,0.636 1.029,1.374 1.083,1.744 0.023,0.172 -0.028,0.351 -0.105,0.5"
             style="fill:#6dac0f;fill-opacity:1;fill-rule:nonzero;stroke:none"
             id="path40" />
        </g>
        <g
           id="g42"
           transform="translate(191.7176,288.5257)">
          <path
             d="m 0,0 c 0,-0.195 -0.158,-0.354 -0.354,-0.354 -0.195,0 -0.353,0.159 -0.353,0.354 0,0.195 0.158,0.354 0.353,0.354 C -0.158,0.354 0,0.195 0,0"
             style="fill:#99c021;fill-opacity:1;fill-rule:nonzero;stroke:none"
             id="path44" />
        </g>
        <g
           id="g46"
           transform="translate(192.4584,288.8907)">
          <path
             d="m 0,0 c 0,-0.218 -0.177,-0.395 -0.395,-0.395 -0.217,0 -0.394,0.177 -0.394,0.395 0,0.218 0.177,0.395 0.394,0.395 C -0.177,0.395 0,0.218 0,0"
             style="fill:#99c021;fill-opacity:1;fill-rule:nonzero;stroke:none"
             id="path48" />
        </g>
        <g
           id="g50"
           transform="translate(193.0789,289.4106)">
          <path
             d="m 0,0 c 0,-0.222 -0.18,-0.402 -0.402,-0.402 -0.222,0 -0.402,0.18 -0.402,0.402 0,0.222 0.18,0.402 0.402,0.402 C -0.18,0.402 0,0.222 0,0"
             style="fill:#99c021;fill-opacity:1;fill-rule:nonzero;stroke:none"
             id="path52" />
        </g>
        <g
           id="g54"
           transform="translate(193.613,290.0076)">
          <path
             d="m 0,0 c 0,-0.214 -0.173,-0.387 -0.387,-0.387 -0.213,0 -0.387,0.173 -0.387,0.387 0,0.214 0.174,0.387 0.387,0.387 C -0.173,0.387 0,0.214 0,0"
             style="fill:#99c021;fill-opacity:1;fill-rule:nonzero;stroke:none"
             id="path56" />
        </g>
        <g
           id="g58"
           transform="translate(194.0303,290.6448)">
          <path
             d="m 0,0 c 0,-0.195 -0.158,-0.354 -0.354,-0.354 -0.195,0 -0.353,0.159 -0.353,0.354 0,0.195 0.158,0.354 0.353,0.354 C -0.158,0.354 0,0.195 0,0"
             style="fill:#99c021;fill-opacity:1;fill-rule:nonzero;stroke:none"
             id="path60" />
        </g>
        <g
           id="g62"
           transform="translate(194.146,291.223)">
          <path
             d="m 0,0 c 0,-0.124 -0.101,-0.224 -0.225,-0.224 -0.123,0 -0.224,0.1 -0.224,0.224 0,0.124 0.101,0.225 0.224,0.225 C -0.101,0.225 0,0.124 0,0"
             style="fill:#99c021;fill-opacity:1;fill-rule:nonzero;stroke:none"
             id="path64" />
        </g>
        <g
           id="g66"
           transform="translate(191.0102,288.2393)">
          <path
             d="m 0,0 c 0,-0.145 -0.117,-0.262 -0.262,-0.262 -0.145,0 -0.262,0.117 -0.262,0.262 0,0.145 0.117,0.262 0.262,0.262 C -0.117,0.262 0,0.145 0,0"
             style="fill:#99c021;fill-opacity:1;fill-rule:nonzero;stroke:none"
             id="path68" />
        </g>
        <g
           id="g70"
           transform="translate(191.7925,288.5649)">
          <path
             d="m 0,0 c 0,-0.193 -0.156,-0.349 -0.349,-0.349 -0.192,0 -0.349,0.156 -0.349,0.349 0,0.193 0.157,0.349 0.349,0.349 C -0.156,0.349 0,0.193 0,0"
             style="fill:#aad63f;fill-opacity:1;fill-rule:nonzero;stroke:none"
             id="path72" />
        </g>
        <g
           id="g74">
          <g
             id="g76" />
          <g
             id="g88">
            <g
               clip-path="url(#clipPath80)"
               opacity="0.440002"
               id="g86">
              <g
                 transform="translate(191.7217,288.567)"
                 id="g84">
                <path
                   d="m 0,0 c -0.062,-0.088 -0.19,-0.104 -0.287,-0.036 -0.098,0.068 -0.126,0.195 -0.064,0.283 0.061,0.088 0.19,0.104 0.287,0.036 C 0.033,0.214 0.062,0.088 0,0"
                   style="fill:#edffae;fill-opacity:1;fill-rule:nonzero;stroke:none"
                   id="path82" />
              </g>
            </g>
          </g>
        </g>
        <g
           id="g90"
           transform="translate(192.5229,288.9248)">
          <path
             d="m 0,0 c 0,-0.215 -0.174,-0.389 -0.389,-0.389 -0.215,0 -0.389,0.174 -0.389,0.389 0,0.215 0.174,0.389 0.389,0.389 C -0.174,0.389 0,0.215 0,0"
             style="fill:#aad63f;fill-opacity:1;fill-rule:nonzero;stroke:none"
             id="path92" />
        </g>
        <g
           id="g94">
          <g
             id="g96" />
          <g
             id="g108">
            <g
               clip-path="url(#clipPath100)"
               opacity="0.440002"
               id="g106">
              <g
                 transform="translate(192.3884,288.9517)"
                 id="g104">
                <path
                   d="m 0,0 c -0.069,-0.098 -0.212,-0.116 -0.321,-0.04 -0.108,0.076 -0.14,0.217 -0.071,0.315 0.069,0.098 0.212,0.116 0.321,0.04 C 0.037,0.239 0.069,0.098 0,0"
                   style="fill:#edffae;fill-opacity:1;fill-rule:nonzero;stroke:none"
                   id="path102" />
              </g>
            </g>
          </g>
        </g>
        <g
           id="g110"
           transform="translate(193.1347,289.4375)">
          <path
             d="m 0,0 c 0,-0.219 -0.178,-0.397 -0.397,-0.397 -0.219,0 -0.396,0.178 -0.396,0.397 0,0.219 0.177,0.397 0.396,0.397 C -0.178,0.397 0,0.219 0,0"
             style="fill:#aad63f;fill-opacity:1;fill-rule:nonzero;stroke:none"
             id="path112" />
        </g>
        <g
           id="g114">
          <g
             id="g116" />
          <g
             id="g128">
            <g
               clip-path="url(#clipPath120)"
               opacity="0.440002"
               id="g126">
              <g
                 transform="translate(192.938,289.4577)"
                 id="g124">
                <path
                   d="M 0,0 C -0.07,-0.1 -0.217,-0.118 -0.327,-0.041 -0.437,0.036 -0.47,0.18 -0.4,0.28 -0.329,0.38 -0.183,0.399 -0.073,0.321 0.038,0.244 0.07,0.1 0,0"
                   style="fill:#edffae;fill-opacity:1;fill-rule:nonzero;stroke:none"
                   id="path122" />
              </g>
            </g>
          </g>
        </g>
        <g
           id="g130"
           transform="translate(193.6614,290.0262)">
          <path
             d="m 0,0 c 0,-0.211 -0.171,-0.381 -0.381,-0.381 -0.211,0 -0.382,0.17 -0.382,0.381 0,0.211 0.171,0.381 0.382,0.381 C -0.171,0.381 0,0.211 0,0"
             style="fill:#aad63f;fill-opacity:1;fill-rule:nonzero;stroke:none"
             id="path132" />
        </g>
        <g
           id="g134">
          <g
             id="g136" />
          <g
             id="g148">
            <g
               clip-path="url(#clipPath140)"
               opacity="0.440002"
               id="g146">
              <g
                 transform="translate(193.5265,290.0525)"
                 id="g144">
                <path
                   d="M 0,0 C -0.067,-0.096 -0.208,-0.114 -0.314,-0.039 -0.42,0.035 -0.452,0.173 -0.384,0.27 -0.317,0.366 -0.176,0.383 -0.07,0.309 0.036,0.235 0.067,0.096 0,0"
                   style="fill:#edffae;fill-opacity:1;fill-rule:nonzero;stroke:none"
                   id="path142" />
              </g>
            </g>
          </g>
        </g>
        <g
           id="g150"
           transform="translate(194.0729,290.6544)">
          <path
             d="m 0,0 c 0,-0.193 -0.156,-0.349 -0.349,-0.349 -0.192,0 -0.349,0.156 -0.349,0.349 0,0.193 0.157,0.349 0.349,0.349 C -0.156,0.349 0,0.193 0,0"
             style="fill:#aad63f;fill-opacity:1;fill-rule:nonzero;stroke:none"
             id="path152" />
        </g>
        <g
           id="g154">
          <g
             id="g156" />
          <g
             id="g168">
            <g
               clip-path="url(#clipPath160)"
               opacity="0.440002"
               id="g166">
              <g
                 transform="translate(193.9443,290.6585)"
                 id="g164">
                <path
                   d="m 0,0 c -0.062,-0.088 -0.19,-0.104 -0.287,-0.036 -0.098,0.068 -0.126,0.195 -0.064,0.283 0.061,0.088 0.19,0.104 0.287,0.036 C 0.033,0.214 0.062,0.088 0,0"
                   style="fill:#edffae;fill-opacity:1;fill-rule:nonzero;stroke:none"
                   id="path162" />
              </g>
            </g>
          </g>
        </g>
        <g
           id="g170"
           transform="translate(194.1869,291.2245)">
          <path
             d="m 0,0 c 0,-0.122 -0.099,-0.221 -0.221,-0.221 -0.123,0 -0.222,0.099 -0.222,0.221 0,0.122 0.099,0.221 0.222,0.221 C -0.099,0.221 0,0.122 0,0"
             style="fill:#aad63f;fill-opacity:1;fill-rule:nonzero;stroke:none"
             id="path172" />
        </g>
        <g
           id="g174">
          <g
             id="g176" />
          <g
             id="g188">
            <g
               clip-path="url(#clipPath180)"
               opacity="0.440002"
               id="g186">
              <g
                 transform="translate(194.0884,291.2398)"
                 id="g184">
                <path
                   d="m 0,0 c -0.039,-0.056 -0.121,-0.066 -0.182,-0.023 -0.062,0.043 -0.08,0.124 -0.041,0.179 0.039,0.056 0.121,0.067 0.182,0.023 C 0.021,0.136 0.039,0.056 0,0"
                   style="fill:#edffae;fill-opacity:1;fill-rule:nonzero;stroke:none"
                   id="path182" />
              </g>
            </g>
          </g>
        </g>
        <g
           id="g190"
           transform="translate(191.095,288.2826)">
          <path
             d="m 0,0 c 0,-0.143 -0.116,-0.258 -0.258,-0.258 -0.143,0 -0.259,0.115 -0.259,0.258 0,0.143 0.116,0.258 0.259,0.258 C -0.116,0.258 0,0.143 0,0"
             style="fill:#aad63f;fill-opacity:1;fill-rule:nonzero;stroke:none"
             id="path192" />
        </g>
        <g
           id="g194">
          <g
             id="g196" />
          <g
             id="g208">
            <g
               clip-path="url(#clipPath200)"
               opacity="0.440002"
               id="g206">
              <g
                 transform="translate(190.9728,288.274)"
                 id="g204">
                <path
                   d="M 0,0 C -0.046,-0.065 -0.141,-0.077 -0.213,-0.027 -0.285,0.024 -0.306,0.118 -0.26,0.183 -0.215,0.248 -0.119,0.26 -0.047,0.209 0.024,0.159 0.046,0.065 0,0"
                   style="fill:#edffae;fill-opacity:1;fill-rule:nonzero;stroke:none"
                   id="path202" />
              </g>
            </g>
          </g>
        </g>
        <g
           id="g210"
           transform="translate(194.5025,291.7004)">
          <path
             d="m 0,0 c -0.008,0.014 -0.017,0.027 -0.028,0.037 -0.08,0.074 -0.309,0.476 0.06,0.604 0.369,0.127 -0.469,0.08 -0.63,-0.604 0,0 -0.004,-0.012 -0.004,-0.029 -0.051,-0.036 -0.133,-0.102 -0.197,-0.194 -0.051,-0.073 0.082,-0.006 0.222,0.041 0.011,-0.027 0.029,-0.052 0.058,-0.068 0.074,-0.039 0.206,0.046 0.319,0.024 0.028,-0.011 0.051,-0.022 0.071,-0.032 0.041,-0.032 0.076,-0.075 0.082,-0.135 0.046,-0.432 0.096,0.051 0.067,0.147 v 0 c 0,0.001 0.001,0.003 0.001,0.004 C 0.165,-0.298 0.17,-0.401 0.17,-0.275 0.17,-0.21 0.068,-0.08 0,0"
             style="fill:#cbdd38;fill-opacity:1;fill-rule:nonzero;stroke:none"
             id="path212" />
        </g>
        <g
           id="g214"
           transform="translate(193.7686,291.5582)">
          <path
             d="M 0,0 C 0,0 0.136,0.079 0.158,0.116 0.179,0.152 0.173,0.303 0.268,0.424 0.364,0.545 0.579,0.741 0.654,0.754 0.728,0.768 0.237,0.622 0.561,0.046 0.633,-0.082 0.488,0.028 0.349,-0.024 0.286,-0.047 0.245,-0.046 0.191,0.009 0.159,0.04 0.075,0.017 0.075,0.017 0.075,0.017 0.031,-0.002 0,0"
             style="fill:#dde758;fill-opacity:1;fill-rule:nonzero;stroke:none"
             id="path216" />
        </g>
        <g
           id="g218"
           transform="translate(181.3213,288.1064)">
          <path
             d="m 0,0 c -0.17,0.079 -0.338,0.161 -0.5,0.244 -0.701,0.361 -1.362,0.785 -1.979,1.262 -0.042,0.033 -0.084,0.065 -0.126,0.1 -0.051,0.04 -0.102,0.082 -0.153,0.126 -0.135,0.233 -0.243,0.468 -0.326,0.694 -0.194,0.521 -0.256,0.994 -0.214,1.266 0.011,0.077 0.039,0.151 0.074,0.221 0.061,0.114 0.147,0.214 0.233,0.291 0.06,0.056 0.123,0.098 0.174,0.128 0.031,0.019 0.059,0.033 0.082,0.037 0.025,0.012 0.044,0.012 0.053,0.005 0.003,-0.005 0.005,-0.012 0.005,-0.019 V 4.353 c -0.002,-0.009 0,-0.03 0.005,-0.058 -0.003,-0.003 0,-0.003 0,-0.005 0.004,-0.016 0.009,-0.035 0.014,-0.056 0.009,-0.032 0.018,-0.07 0.03,-0.114 0.005,-0.007 0.007,-0.014 0.009,-0.023 0.01,-0.033 0.021,-0.07 0.037,-0.112 0,-0.004 0.003,-0.009 0.003,-0.014 C -2.577,3.964 -2.575,3.957 -2.572,3.95 -2.561,3.922 -2.551,3.89 -2.54,3.857 -2.516,3.797 -2.493,3.729 -2.465,3.659 -2.46,3.645 -2.454,3.629 -2.449,3.615 -2.44,3.592 -2.43,3.569 -2.421,3.545 -2.419,3.541 -2.419,3.538 -2.416,3.536 -2.414,3.531 -2.412,3.527 -2.412,3.522 -2.374,3.429 -2.335,3.333 -2.288,3.231 -2.251,3.143 -2.209,3.049 -2.167,2.952 -2.16,2.94 -2.153,2.926 -2.149,2.912 -2.146,2.91 -2.146,2.907 -2.144,2.905 -2.139,2.896 -2.135,2.884 -2.13,2.872 -2.076,2.758 -2.021,2.642 -1.96,2.523 -1.911,2.426 -1.858,2.326 -1.804,2.225 -1.797,2.214 -1.79,2.2 -1.783,2.188 -1.781,2.183 -1.778,2.177 -1.776,2.172 -1.764,2.151 -1.753,2.13 -1.739,2.109 c -0.002,-0.002 0,-0.002 0,-0.002 0.096,-0.175 0.198,-0.352 0.307,-0.524 0.005,-0.007 0.007,-0.012 0.012,-0.019 0.002,-0.002 0.005,-0.007 0.007,-0.009 0.102,-0.161 0.212,-0.314 0.326,-0.459 0.014,-0.016 0.026,-0.032 0.037,-0.048 0.002,0 0.002,-0.003 0.002,-0.003 0.014,-0.014 0.026,-0.03 0.04,-0.044 C -0.94,0.919 -0.873,0.84 -0.805,0.766 -0.729,0.682 -0.654,0.603 -0.582,0.533 -0.356,0.303 -0.147,0.121 0,0"
             style="fill:#7eb341;fill-opacity:1;fill-rule:nonzero;stroke:none"
             id="path220" />
        </g>
        <g
           id="g222"
           transform="translate(182.6662,288.9402)">
          <path
             d="M 0,0 C 0,0 -1.151,0.402 -2.053,1.197 -3.168,2.179 -4.033,3.396 -4.042,3.521 -4.051,3.646 -4.516,3.161 -4.454,2.71 -4.391,2.26 -3.908,1.374 -3.076,0.713 -2.245,0.051 -1.272,-0.554 -0.385,-0.383 -0.123,-0.332 0,0 0,0"
             style="fill:#6dac0f;fill-opacity:1;fill-rule:nonzero;stroke:none"
             id="path224" />
        </g>
        <g
           id="g226"
           transform="translate(180.6579,288.9444)">
          <path
             d="m 0,0 c -0.147,0.079 -0.289,0.168 -0.424,0.258 -0.232,0.156 -0.447,0.319 -0.633,0.466 -0.847,0.675 -1.31,1.567 -1.369,1.986 -0.025,0.179 0.038,0.363 0.119,0.507 0.005,0.012 0.009,0.021 0.016,0.03 0.04,0.07 0.082,0.128 0.119,0.17 0.063,0.075 0.107,0.1 0.121,0.1 0.003,-0.018 0.021,-0.06 0.056,-0.121 0.019,-0.03 0.04,-0.067 0.068,-0.109 0.009,-0.016 0.021,-0.033 0.032,-0.049 L -1.893,3.236 C -1.86,3.187 -1.82,3.131 -1.778,3.068 -1.771,3.061 -1.764,3.052 -1.76,3.045 -1.441,2.607 -0.887,1.939 -0.228,1.334 -0.172,1.28 -0.116,1.229 -0.058,1.178 0.026,1.103 0.112,1.034 0.198,0.968 0.324,0.871 0.454,0.78 0.582,0.696 0.696,0.622 0.81,0.552 0.919,0.489 1.441,0.191 1.886,0.021 1.983,-0.016 1.953,-0.084 1.832,-0.326 1.62,-0.368 1.52,-0.386 1.415,-0.398 1.311,-0.398 1.213,-0.398 1.115,-0.389 1.017,-0.375 0.987,-0.37 0.954,-0.363 0.924,-0.356 0.836,-0.34 0.75,-0.317 0.661,-0.291 0.435,-0.219 0.212,-0.116 0,0 M 2.014,0.014 C 2.007,0.016 1.513,0.191 0.922,0.533 0.81,0.596 0.696,0.666 0.58,0.743 0.454,0.826 0.326,0.915 0.203,1.013 c -0.08,0.06 -0.159,0.125 -0.236,0.193 -0.062,0.056 -0.125,0.112 -0.186,0.17 -0.724,0.67 -1.334,1.429 -1.62,1.841 -0.014,0.023 -0.028,0.044 -0.042,0.063 -0.014,0.021 -0.028,0.042 -0.039,0.06 0,0 0,0.003 -0.003,0.003 -0.016,0.025 -0.03,0.049 -0.042,0.067 -0.03,0.051 -0.046,0.089 -0.049,0.105 v 0.002 c 0,0.007 -0.002,0.014 -0.004,0.019 -0.007,0.014 -0.021,0.021 -0.033,0.021 -0.03,0 -0.07,-0.03 -0.102,-0.063 C -2.174,3.475 -2.19,3.457 -2.202,3.443 -2.249,3.389 -2.298,3.322 -2.339,3.245 -2.346,3.231 -2.353,3.217 -2.36,3.203 -2.437,3.054 -2.488,2.875 -2.465,2.703 -2.405,2.279 -1.937,1.376 -1.08,0.694 -0.866,0.524 -0.617,0.335 -0.345,0.163 -0.23,0.088 -0.109,0.016 0.012,-0.049 0.226,-0.165 0.447,-0.263 0.673,-0.331 0.764,-0.361 0.857,-0.384 0.95,-0.4 0.975,-0.405 0.996,-0.41 1.022,-0.412 h 0.002 c 0.096,-0.016 0.191,-0.023 0.287,-0.023 0.107,0 0.214,0.009 0.316,0.03 0.27,0.051 0.394,0.379 0.401,0.393 l 0.007,0.019 z"
             style="fill:#6dac0f;fill-opacity:1;fill-rule:nonzero;stroke:none"
             id="path228" />
        </g>
        <g
           id="g230"
           transform="translate(180.9113,289.173)">
          <path
             d="m 0,0 c 0,-0.195 0.158,-0.354 0.354,-0.354 0.195,0 0.353,0.159 0.353,0.354 0,0.195 -0.158,0.354 -0.353,0.354 C 0.158,0.354 0,0.195 0,0"
             style="fill:#99c021;fill-opacity:1;fill-rule:nonzero;stroke:none"
             id="path232" />
        </g>
        <g
           id="g234"
           transform="translate(180.1705,289.538)">
          <path
             d="m 0,0 c 0,-0.218 0.177,-0.395 0.395,-0.395 0.217,0 0.394,0.177 0.394,0.395 0,0.218 -0.177,0.395 -0.394,0.395 C 0.177,0.395 0,0.218 0,0"
             style="fill:#99c021;fill-opacity:1;fill-rule:nonzero;stroke:none"
             id="path236" />
        </g>
        <g
           id="g238"
           transform="translate(179.55,290.0579)">
          <path
             d="m 0,0 c 0,-0.222 0.18,-0.402 0.402,-0.402 0.222,0 0.402,0.18 0.402,0.402 0,0.222 -0.18,0.402 -0.402,0.402 C 0.18,0.402 0,0.222 0,0"
             style="fill:#99c021;fill-opacity:1;fill-rule:nonzero;stroke:none"
             id="path240" />
        </g>
        <g
           id="g242"
           transform="translate(179.0159,290.655)">
          <path
             d="M 0,0 C 0,-0.214 0.173,-0.387 0.387,-0.387 0.6,-0.387 0.774,-0.214 0.774,0 0.774,0.214 0.6,0.387 0.387,0.387 0.173,0.387 0,0.214 0,0"
             style="fill:#99c021;fill-opacity:1;fill-rule:nonzero;stroke:none"
             id="path244" />
        </g>
        <g
           id="g246"
           transform="translate(178.5986,291.2921)">
          <path
             d="m 0,0 c 0,-0.195 0.158,-0.354 0.354,-0.354 0.195,0 0.353,0.159 0.353,0.354 0,0.195 -0.158,0.354 -0.353,0.354 C 0.158,0.354 0,0.195 0,0"
             style="fill:#99c021;fill-opacity:1;fill-rule:nonzero;stroke:none"
             id="path248" />
        </g>
        <g
           id="g250"
           transform="translate(178.483,291.8703)">
          <path
             d="m 0,0 c 0,-0.124 0.1,-0.224 0.224,-0.224 0.124,0 0.225,0.1 0.225,0.224 0,0.124 -0.101,0.224 -0.225,0.224 C 0.1,0.224 0,0.124 0,0"
             style="fill:#99c021;fill-opacity:1;fill-rule:nonzero;stroke:none"
             id="path252" />
        </g>
        <g
           id="g254"
           transform="translate(181.6187,288.8867)">
          <path
             d="m 0,0 c 0,-0.145 0.117,-0.262 0.262,-0.262 0.145,0 0.262,0.117 0.262,0.262 0,0.145 -0.117,0.262 -0.262,0.262 C 0.117,0.262 0,0.145 0,0"
             style="fill:#99c021;fill-opacity:1;fill-rule:nonzero;stroke:none"
             id="path256" />
        </g>
        <g
           id="g258"
           transform="translate(180.8364,289.2122)">
          <path
             d="m 0,0 c 0,-0.193 0.156,-0.349 0.349,-0.349 0.192,0 0.349,0.156 0.349,0.349 0,0.193 -0.157,0.349 -0.349,0.349 C 0.156,0.349 0,0.193 0,0"
             style="fill:#aad63f;fill-opacity:1;fill-rule:nonzero;stroke:none"
             id="path260" />
        </g>
        <g
           id="g262">
          <g
             id="g264" />
          <g
             id="g276">
            <g
               clip-path="url(#clipPath268)"
               opacity="0.440002"
               id="g274">
              <g
                 transform="translate(180.9072,289.2144)"
                 id="g272">
                <path
                   d="M 0,0 C 0.062,-0.088 0.19,-0.104 0.287,-0.036 0.384,0.032 0.413,0.159 0.351,0.247 0.29,0.335 0.161,0.351 0.064,0.283 -0.033,0.214 -0.062,0.088 0,0"
                   style="fill:#edffae;fill-opacity:1;fill-rule:nonzero;stroke:none"
                   id="path270" />
              </g>
            </g>
          </g>
        </g>
        <g
           id="g278"
           transform="translate(180.1059,289.5722)">
          <path
             d="m 0,0 c 0,-0.215 0.174,-0.389 0.389,-0.389 0.215,0 0.389,0.174 0.389,0.389 0,0.215 -0.174,0.389 -0.389,0.389 C 0.174,0.389 0,0.215 0,0"
             style="fill:#aad63f;fill-opacity:1;fill-rule:nonzero;stroke:none"
             id="path280" />
        </g>
        <g
           id="g282">
          <g
             id="g284" />
          <g
             id="g296">
            <g
               clip-path="url(#clipPath288)"
               opacity="0.440002"
               id="g294">
              <g
                 transform="translate(180.2404,289.599)"
                 id="g292">
                <path
                   d="M 0,0 C 0.069,-0.098 0.212,-0.116 0.321,-0.04 0.429,0.036 0.461,0.177 0.392,0.275 0.323,0.373 0.18,0.391 0.071,0.315 -0.037,0.239 -0.069,0.098 0,0"
                   style="fill:#edffae;fill-opacity:1;fill-rule:nonzero;stroke:none"
                   id="path290" />
              </g>
            </g>
          </g>
        </g>
        <g
           id="g298"
           transform="translate(179.4942,290.0848)">
          <path
             d="m 0,0 c 0,-0.219 0.178,-0.397 0.397,-0.397 0.219,0 0.396,0.178 0.396,0.397 0,0.219 -0.177,0.397 -0.396,0.397 C 0.178,0.397 0,0.219 0,0"
             style="fill:#aad63f;fill-opacity:1;fill-rule:nonzero;stroke:none"
             id="path300" />
        </g>
        <g
           id="g302">
          <g
             id="g304" />
          <g
             id="g316">
            <g
               clip-path="url(#clipPath308)"
               opacity="0.440002"
               id="g314">
              <g
                 transform="translate(179.6909,290.105)"
                 id="g312">
                <path
                   d="M 0,0 C 0.07,-0.1 0.216,-0.118 0.327,-0.041 0.437,0.036 0.47,0.18 0.4,0.28 0.329,0.38 0.183,0.399 0.073,0.321 -0.038,0.244 -0.07,0.1 0,0"
                   style="fill:#edffae;fill-opacity:1;fill-rule:nonzero;stroke:none"
                   id="path310" />
              </g>
            </g>
          </g>
        </g>
        <g
           id="g318"
           transform="translate(178.9675,290.6736)">
          <path
             d="m 0,0 c 0,-0.211 0.171,-0.381 0.381,-0.381 0.211,0 0.382,0.17 0.382,0.381 0,0.211 -0.171,0.381 -0.382,0.381 C 0.171,0.381 0,0.211 0,0"
             style="fill:#aad63f;fill-opacity:1;fill-rule:nonzero;stroke:none"
             id="path320" />
        </g>
        <g
           id="g322">
          <g
             id="g324" />
          <g
             id="g336">
            <g
               clip-path="url(#clipPath328)"
               opacity="0.440002"
               id="g334">
              <g
                 transform="translate(179.1024,290.6998)"
                 id="g332">
                <path
                   d="M 0,0 C 0.068,-0.096 0.208,-0.114 0.314,-0.039 0.42,0.035 0.452,0.173 0.384,0.27 0.317,0.366 0.176,0.383 0.07,0.309 -0.036,0.235 -0.067,0.096 0,0"
                   style="fill:#edffae;fill-opacity:1;fill-rule:nonzero;stroke:none"
                   id="path330" />
              </g>
            </g>
          </g>
        </g>
        <g
           id="g338"
           transform="translate(178.556,291.3017)">
          <path
             d="m 0,0 c 0,-0.193 0.156,-0.349 0.349,-0.349 0.192,0 0.349,0.156 0.349,0.349 0,0.193 -0.157,0.349 -0.349,0.349 C 0.156,0.349 0,0.193 0,0"
             style="fill:#aad63f;fill-opacity:1;fill-rule:nonzero;stroke:none"
             id="path340" />
        </g>
        <g
           id="g342">
          <g
             id="g344" />
          <g
             id="g356">
            <g
               clip-path="url(#clipPath348)"
               opacity="0.440002"
               id="g354">
              <g
                 transform="translate(178.6846,291.3058)"
                 id="g352">
                <path
                   d="M 0,0 C 0.062,-0.088 0.19,-0.104 0.287,-0.036 0.385,0.032 0.413,0.159 0.351,0.247 0.29,0.335 0.161,0.351 0.064,0.283 -0.033,0.214 -0.062,0.088 0,0"
                   style="fill:#edffae;fill-opacity:1;fill-rule:nonzero;stroke:none"
                   id="path350" />
              </g>
            </g>
          </g>
        </g>
        <g
           id="g358"
           transform="translate(178.442,291.8719)">
          <path
             d="m 0,0 c 0,-0.122 0.099,-0.221 0.221,-0.221 0.123,0 0.222,0.099 0.222,0.221 0,0.122 -0.099,0.221 -0.222,0.221 C 0.099,0.221 0,0.122 0,0"
             style="fill:#aad63f;fill-opacity:1;fill-rule:nonzero;stroke:none"
             id="path360" />
        </g>
        <g
           id="g362">
          <g
             id="g364" />
          <g
             id="g376">
            <g
               clip-path="url(#clipPath368)"
               opacity="0.440002"
               id="g374">
              <g
                 transform="translate(178.5405,291.8872)"
                 id="g372">
                <path
                   d="M 0,0 C 0.039,-0.056 0.121,-0.066 0.182,-0.023 0.244,0.02 0.262,0.101 0.223,0.156 0.184,0.212 0.102,0.222 0.041,0.179 -0.021,0.136 -0.039,0.056 0,0"
                   style="fill:#edffae;fill-opacity:1;fill-rule:nonzero;stroke:none"
                   id="path370" />
              </g>
            </g>
          </g>
        </g>
        <g
           id="g378"
           transform="translate(181.534,288.9299)">
          <path
             d="m 0,0 c 0,-0.143 0.116,-0.258 0.258,-0.258 0.143,0 0.259,0.115 0.259,0.258 0,0.143 -0.116,0.258 -0.259,0.258 C 0.116,0.258 0,0.143 0,0"
             style="fill:#aad63f;fill-opacity:1;fill-rule:nonzero;stroke:none"
             id="path380" />
        </g>
        <g
           id="g382">
          <g
             id="g384" />
          <g
             id="g396">
            <g
               clip-path="url(#clipPath388)"
               opacity="0.440002"
               id="g394">
              <g
                 transform="translate(181.6561,288.9214)"
                 id="g392">
                <path
                   d="M 0,0 C 0.046,-0.065 0.141,-0.077 0.213,-0.027 0.285,0.024 0.306,0.117 0.26,0.183 0.215,0.248 0.119,0.26 0.047,0.209 -0.024,0.159 -0.046,0.065 0,0"
                   style="fill:#edffae;fill-opacity:1;fill-rule:nonzero;stroke:none"
                   id="path390" />
              </g>
            </g>
          </g>
        </g>
        <g
           id="g398"
           transform="translate(178.1264,292.3477)">
          <path
             d="m 0,0 c 0.008,0.014 0.017,0.027 0.028,0.037 0.08,0.074 0.309,0.476 -0.06,0.604 -0.369,0.127 0.469,0.08 0.63,-0.604 0,0 0.004,-0.012 0.004,-0.029 C 0.653,-0.028 0.735,-0.093 0.799,-0.186 0.85,-0.258 0.717,-0.192 0.577,-0.144 0.566,-0.172 0.548,-0.197 0.519,-0.213 0.445,-0.252 0.313,-0.167 0.2,-0.189 0.172,-0.2 0.15,-0.211 0.129,-0.221 0.088,-0.253 0.053,-0.296 0.047,-0.356 0.001,-0.788 -0.049,-0.305 -0.02,-0.209 v 0 c 0,0.001 -0.001,0.003 -0.001,0.004 C -0.165,-0.298 -0.17,-0.401 -0.17,-0.275 -0.17,-0.21 -0.068,-0.08 0,0"
             style="fill:#cbdd38;fill-opacity:1;fill-rule:nonzero;stroke:none"
             id="path400" />
        </g>
        <g
           id="g402"
           transform="translate(178.8604,292.2056)">
          <path
             d="m 0,0 c 0,0 -0.136,0.079 -0.158,0.116 -0.021,0.036 -0.015,0.187 -0.11,0.308 -0.096,0.121 -0.311,0.317 -0.386,0.33 -0.074,0.014 0.417,-0.132 0.093,-0.708 -0.073,-0.129 0.073,-0.018 0.212,-0.07 0.063,-0.023 0.104,-0.022 0.158,0.033 0.032,0.031 0.116,0.008 0.116,0.008 0,0 0.044,-0.019 0.075,-0.017"
             style="fill:#dde758;fill-opacity:1;fill-rule:nonzero;stroke:none"
             id="path404" />
        </g>
        <g
           id="g406"
           transform="translate(176.3381,288.3006)">
          <path
             d="M 0,0 C -0.621,0.604 -1.189,1.261 -1.696,1.967 L -1.997,1.75 c 0.519,-0.723 1.102,-1.397 1.738,-2.016 z"
             style="fill:#000000;fill-opacity:1;fill-rule:nonzero;stroke:none"
             id="path408" />
        </g>
        <g
           id="g410"
           transform="translate(197.3645,288.0345)">
          <path
             d="M 0,0 C 0.637,0.619 1.219,1.293 1.739,2.017 L 1.437,2.233 C 0.931,1.528 0.363,0.87 -0.258,0.266 Z"
             style="fill:#000000;fill-opacity:1;fill-rule:nonzero;stroke:none"
             id="path412" />
        </g>
        <g
           id="g414"
           transform="translate(186.274,287.2695)">
          <path
             d="M 0,0 V -0.162 H -0.314 V 0.013 Z"
             style="fill:#000000;fill-opacity:1;fill-rule:nonzero;stroke:none"
             id="path416" />
        </g>
        <g
           id="g418"
           transform="translate(192.4575,289.1562)">
          <path
             d="m 0,0 v -0.016 c 0,-0.021 -0.002,-0.042 -0.005,-0.063 -0.002,-0.03 -0.004,-0.058 -0.009,-0.089 -0.009,-0.097 -0.028,-0.197 -0.051,-0.295 0,-0.01 -0.003,-0.019 -0.007,-0.028 -0.002,-0.014 -0.005,-0.028 -0.009,-0.042 -0.007,-0.033 -0.017,-0.065 -0.026,-0.096 -0.002,-0.009 -0.005,-0.02 -0.007,-0.03 0,-0.002 -0.002,-0.007 -0.005,-0.009 v -0.005 c 0,-0.004 -0.002,-0.007 -0.004,-0.011 -0.019,-0.068 -0.042,-0.135 -0.068,-0.198 -0.065,-0.033 -0.13,-0.065 -0.195,-0.096 h -0.003 c -0.102,-0.049 -0.202,-0.095 -0.307,-0.139 -0.002,0 -0.005,0 -0.007,-0.003 -0.14,-0.065 -0.279,-0.123 -0.421,-0.179 -0.003,-0.002 -0.003,-0.002 -0.005,0 -0.002,-0.002 -0.002,-0.002 -0.005,0 -0.002,-0.002 -0.002,-0.002 -0.004,0 -0.003,-0.002 -0.003,-0.002 -0.005,0 -0.002,-0.002 -0.005,0 -0.005,0 -0.488,-0.198 -0.973,-0.363 -1.485,-0.493 -0.053,0.021 -0.109,0.044 -0.165,0.069 -0.021,0.007 -0.044,0.019 -0.065,0.028 -0.075,0.035 -0.147,0.073 -0.219,0.114 -0.13,0.07 -0.254,0.152 -0.365,0.242 -0.233,0.184 -0.419,0.406 -0.527,0.666 -0.174,0.422 -0.211,0.945 -0.044,1.39 0.014,0.037 0.03,0.074 0.047,0.109 0.046,0.103 0.1,0.201 0.16,0.291 0.305,0.473 0.771,0.808 1.339,0.838 0.1,0.005 0.193,-0.023 0.282,-0.072 0.097,-0.049 0.19,-0.121 0.288,-0.186 0.044,-0.03 0.089,-0.058 0.135,-0.084 0.03,-0.016 0.061,-0.032 0.093,-0.044 0.024,-0.012 0.047,-0.019 0.07,-0.026 0.014,-0.007 0.03,-0.009 0.047,-0.014 0.028,-0.007 0.053,-0.014 0.079,-0.021 h 0.002 C -1.42,1.494 -1.366,1.48 -1.315,1.464 -1.301,1.46 -1.29,1.457 -1.278,1.455 -1.22,1.436 -1.164,1.418 -1.11,1.397 -1.071,1.383 -1.034,1.369 -0.996,1.355 -0.566,1.18 -0.272,0.947 -0.123,0.652 -0.119,0.647 -0.116,0.64 -0.114,0.635 -0.109,0.631 -0.107,0.624 -0.105,0.617 -0.095,0.598 -0.086,0.58 -0.079,0.561 -0.074,0.552 -0.072,0.542 -0.07,0.533 -0.063,0.521 -0.058,0.507 -0.056,0.491 -0.007,0.344 0.007,0.177 0,0"
             style="fill:#d82f27;fill-opacity:1;fill-rule:nonzero;stroke:none"
             id="path420" />
        </g>
        <g
           id="g422"
           transform="translate(191.6892,288.7006)">
          <path
             d="m 0,0 c -0.151,-0.325 -0.465,-0.484 -0.784,-0.613 -0.384,-0.155 -0.799,-0.06 -1.22,0.136 -0.383,0.179 -0.713,0.438 -0.857,0.788 -0.145,0.354 -0.167,0.799 0.001,1.159 0.224,0.482 0.635,0.844 1.159,0.873 0.255,0.014 0.435,-0.265 0.706,-0.329 C -0.376,1.867 0.006,1.618 0.149,1.265 0.292,0.913 0.167,0.358 0,0"
             style="fill:#d82f27;fill-opacity:1;fill-rule:nonzero;stroke:none"
             id="path424" />
        </g>
        <g
           id="g426"
           transform="translate(190.2736,290.6534)">
          <path
             d="m 0,0 c 0,0 -0.309,0.504 -0.869,0.047 -0.602,-0.491 -0.662,-0.915 -0.537,-1.198 0,0 0.213,-0.236 0.347,0.013 0.134,0.25 0.021,0.583 0.291,0.752 0.271,0.17 0.353,-0.12 0.57,-0.101 C 0.019,-0.467 0.131,-0.287 0,0"
             style="fill:#d82f27;fill-opacity:1;fill-rule:nonzero;stroke:none"
             id="path428" />
        </g>
        <g
           id="g430"
           transform="translate(190.7105,290.8152)">
          <path
             d="m 0,0 c 0,0 -0.442,0.8 -1.07,0.817 -0.627,0.017 0.388,0.048 0.822,-0.921 0.112,-0.251 -0.287,0.233 -0.766,0.145 -0.361,-0.066 -0.539,-0.436 -0.509,-0.559 0.03,-0.124 0.212,0.446 0.687,0.33 0,0 0.616,-0.221 0.758,-0.328 0.075,-0.057 0.567,-0.484 0.02,-1.168 -0.156,-0.195 0.814,0.371 0.536,0.837 -0.041,0.07 0.048,0.14 0.048,0.14 0,0 0.457,-0.16 0.618,-0.373 0.095,-0.126 0.2,-0.43 0.175,-0.577 C 1.297,-1.788 1.611,-1.07 0.884,-0.541 0.277,-0.099 1.435,-0.33 1.701,-0.59 1.967,-0.851 1.164,0.083 0.564,-0.097 0.106,-0.236 0.056,-0.069 0,0"
             style="fill:#78b639;fill-opacity:1;fill-rule:nonzero;stroke:none"
             id="path432" />
        </g>
        <g
           id="g434"
           transform="translate(190.8426,290.6149)">
          <path
             d="m 0,0 c 0,0 -0.152,0.153 -0.282,0.287 -0.129,0.134 0.198,-0.371 0.024,-0.329 -0.173,0.043 -0.421,0.095 -0.49,0.083 -0.068,-0.012 0.505,-0.19 0.724,-0.438 0.078,-0.088 0.206,-0.178 0.302,-0.485 0.026,-0.086 0.057,0.2 -0.002,0.419 -0.044,0.161 0.326,-0.035 0.476,-0.124 0.15,-0.089 -0.159,0.199 -0.227,0.384 -0.067,0.184 0.018,0.197 0.082,0.192 C 0.67,-0.016 0.479,0.108 0.336,-0.003 0.194,-0.115 0.119,-0.057 0,0"
             style="fill:#518d23;fill-opacity:1;fill-rule:nonzero;stroke:none"
             id="path436" />
        </g>
        <g
           id="g438"
           transform="translate(190.9265,290.3896)">
          <path
             d="M 0,0 C -0.271,0.089 -0.063,0.302 -0.012,0.405 0.054,0.537 0.077,0.695 0.113,0.84 0.114,0.84 0.115,0.839 0.116,0.839 0.141,0.788 0.265,0.739 0.332,0.738 0.304,0.596 0.263,0.441 0.229,0.301 0.208,0.211 0.171,-0.056 0,0"
             style="fill:#7eb341;fill-opacity:1;fill-rule:nonzero;stroke:none"
             id="path440" />
        </g>
        <g
           id="g442"
           transform="translate(191.2582,291.1279)">
          <path
             d="m 0,0 c -0.006,-0.014 -0.061,-0.002 -0.121,0.026 -0.06,0.028 -0.104,0.062 -0.098,0.076 0.007,0.014 0.061,0.002 0.121,-0.026 C -0.037,0.048 0.006,0.014 0,0"
             style="fill:#549606;fill-opacity:1;fill-rule:nonzero;stroke:none"
             id="path444" />
        </g>
        <g
           id="g446"
           transform="translate(187.4902,289.4737)">
          <path
             d="m 0,0 c -0.196,-0.421 -0.602,-0.627 -1.015,-0.793 -0.496,-0.201 -1.033,-0.078 -1.578,0.176 -0.496,0.231 -0.923,0.567 -1.109,1.02 -0.188,0.458 -0.216,1.033 10e-4,1.499 0.29,0.623 0.822,1.093 1.5,1.13 0.33,0.018 0.563,-0.343 0.914,-0.426 0.8,-0.19 1.294,-0.513 1.48,-0.969 C 0.378,1.181 0.216,0.464 0,0"
             style="fill:#d82f27;fill-opacity:1;fill-rule:nonzero;stroke:none"
             id="path448" />
        </g>
        <g
           id="g450"
           transform="translate(186.9929,290.0948)">
          <path
             d="m 0,0 c -0.151,-0.325 -0.465,-0.484 -0.784,-0.613 -0.384,-0.155 -0.799,-0.06 -1.22,0.136 -0.383,0.179 -0.713,0.438 -0.857,0.788 -0.145,0.354 -0.167,0.799 0.001,1.159 0.224,0.482 0.635,0.844 1.159,0.873 0.255,0.014 0.435,-0.265 0.706,-0.329 C -0.376,1.867 0.006,1.618 0.149,1.265 0.292,0.913 0.167,0.358 0,0"
             style="fill:#d82f27;fill-opacity:1;fill-rule:nonzero;stroke:none"
             id="path452" />
        </g>
        <g
           id="g454"
           transform="translate(185.5773,292.0476)">
          <path
             d="m 0,0 c 0,0 -0.309,0.504 -0.869,0.047 -0.602,-0.491 -0.662,-0.915 -0.537,-1.198 0,0 0.213,-0.236 0.347,0.013 0.134,0.25 0.021,0.583 0.291,0.752 0.271,0.17 0.353,-0.12 0.57,-0.101 C 0.019,-0.467 0.131,-0.287 0,0"
             style="fill:#d82f27;fill-opacity:1;fill-rule:nonzero;stroke:none"
             id="path456" />
        </g>
        <g
           id="g458"
           transform="translate(186.0142,292.2094)">
          <path
             d="m 0,0 c 0,0 -0.442,0.8 -1.07,0.817 -0.627,0.016 0.388,0.048 0.822,-0.921 0.112,-0.251 -0.287,0.233 -0.766,0.145 -0.361,-0.066 -0.539,-0.436 -0.509,-0.559 0.03,-0.124 0.212,0.446 0.687,0.33 0,0 0.616,-0.221 0.758,-0.328 0.075,-0.057 0.567,-0.484 0.02,-1.168 -0.156,-0.195 0.814,0.371 0.536,0.837 -0.041,0.07 0.048,0.14 0.048,0.14 0,0 0.457,-0.16 0.618,-0.373 0.095,-0.126 0.2,-0.43 0.175,-0.577 C 1.297,-1.788 1.611,-1.07 0.884,-0.541 0.277,-0.099 1.435,-0.33 1.701,-0.59 1.967,-0.851 1.164,0.083 0.564,-0.097 0.106,-0.236 0.056,-0.069 0,0"
             style="fill:#78b639;fill-opacity:1;fill-rule:nonzero;stroke:none"
             id="path460" />
        </g>
        <g
           id="g462"
           transform="translate(186.1463,292.009)">
          <path
             d="m 0,0 c 0,0 -0.152,0.153 -0.282,0.287 -0.129,0.134 0.198,-0.371 0.024,-0.329 -0.173,0.043 -0.421,0.095 -0.49,0.083 -0.068,-0.012 0.505,-0.19 0.724,-0.438 0.078,-0.088 0.206,-0.178 0.302,-0.485 0.026,-0.086 0.057,0.2 -0.002,0.419 -0.044,0.161 0.326,-0.035 0.476,-0.124 0.15,-0.089 -0.159,0.199 -0.227,0.383 -0.067,0.185 0.018,0.198 0.082,0.193 C 0.67,-0.016 0.479,0.108 0.336,-0.003 0.194,-0.115 0.119,-0.057 0,0"
             style="fill:#518d23;fill-opacity:1;fill-rule:nonzero;stroke:none"
             id="path464" />
        </g>
        <g
           id="g466"
           transform="translate(186.2302,291.7838)">
          <path
             d="M 0,0 C -0.271,0.089 -0.063,0.303 -0.012,0.405 0.054,0.537 0.077,0.695 0.113,0.84 0.114,0.84 0.115,0.839 0.116,0.839 0.141,0.788 0.265,0.739 0.332,0.738 0.304,0.596 0.263,0.441 0.229,0.301 0.208,0.211 0.171,-0.056 0,0"
             style="fill:#7eb341;fill-opacity:1;fill-rule:nonzero;stroke:none"
             id="path468" />
        </g>
        <g
           id="g470"
           transform="translate(186.5619,292.522)">
          <path
             d="m 0,0 c -0.006,-0.014 -0.061,-0.002 -0.121,0.026 -0.06,0.028 -0.104,0.062 -0.098,0.076 0.007,0.014 0.061,0.002 0.121,-0.026 C -0.037,0.048 0.006,0.014 0,0"
             style="fill:#549606;fill-opacity:1;fill-rule:nonzero;stroke:none"
             id="path472" />
        </g>
        <g
           id="g474"
           transform="translate(180.968,290.8133)">
          <path
             d="M 0,0 C 0,0 0.155,0.436 0.629,0.599 1.102,0.762 2.09,0.92 2.111,0.727 2.133,0.534 1.888,-0.277 1.888,-0.277 Z"
             style="fill:#024e0c;fill-opacity:1;fill-rule:nonzero;stroke:none"
             id="path476" />
        </g>
        <g
           id="g478"
           transform="translate(182.7417,291.2889)">
          <path
             d="M 0,0 C 0,0 0.611,0.64 1.227,0.473 1.842,0.307 1.929,-0.177 1.929,-0.177 1.929,-0.177 0.766,-1.244 0,0"
             style="fill:#00500b;fill-opacity:1;fill-rule:nonzero;stroke:none"
             id="path480" />
        </g>
        <g
           id="g482"
           transform="translate(183.2813,287.3987)">
          <path
             d="M 0,0 C -0.594,0.158 -1.169,0.361 -1.723,0.603 -1.802,0.635 -1.881,0.673 -1.96,0.708 -2.13,0.787 -2.298,0.868 -2.46,0.952 -2.488,1.05 -2.516,1.148 -2.542,1.241 -2.556,1.285 -2.568,1.329 -2.579,1.371 -2.591,1.413 -2.6,1.455 -2.612,1.497 -2.614,1.504 -2.616,1.508 -2.616,1.518 V 1.52 c -0.003,0.007 -0.005,0.016 -0.007,0.026 -0.019,0.072 -0.038,0.139 -0.052,0.204 -0.004,0.017 -0.009,0.033 -0.014,0.049 -0.03,0.138 -0.058,0.254 -0.074,0.338 -0.021,0.098 -0.033,0.154 -0.033,0.154 0,0 -0.035,0.088 -0.053,0.218 -0.005,0.014 -0.007,0.031 -0.007,0.047 -0.003,0.002 -0.003,0.002 -0.003,0.005 -0.011,0.095 -0.016,0.207 0.007,0.318 0,0.007 0,0.012 0.005,0.019 V 2.9 c 0,0.007 0,0.014 0.005,0.021 0.03,0.135 0.1,0.266 0.233,0.364 0.116,0.086 0.225,0.153 0.33,0.204 0.363,0.182 0.659,0.17 0.885,0.087 0.03,-0.012 0.058,-0.024 0.086,-0.038 0.135,-0.065 0.242,-0.153 0.319,-0.235 0,0 0.004,-0.002 0.007,-0.005 0.03,-0.032 0.058,-0.062 0.079,-0.09 0.021,-0.028 0.037,-0.052 0.049,-0.07 0.021,-0.028 0.03,-0.044 0.03,-0.044 0,0 0.726,-1.907 0.829,-2.77 C 0.021,0.184 0.021,0.072 0,0"
             style="fill:#006912;fill-opacity:1;fill-rule:nonzero;stroke:none"
             id="path484" />
        </g>
        <g
           id="g486"
           transform="translate(181.5952,290.6209)">
          <path
             d="M 0,0 C 0,0 0.115,0.319 0.615,0.544 1.114,0.769 0.47,1.46 0.23,1.582 -0.011,1.704 0.404,2.043 0.472,1.965 0.541,1.888 0.898,1.575 1.062,1.203 1.225,0.831 1.59,0.543 1.835,0.668 2.079,0.794 1.532,-0.441 0,0"
             style="fill:#518d23;fill-opacity:1;fill-rule:nonzero;stroke:none"
             id="path488" />
        </g>
        <g
           id="g490"
           transform="translate(181.7503,290.5824)">
          <path
             d="m 0,0 c 0,0 0.08,0.186 0.187,0.323 0.072,0.092 0.436,0.138 0.489,0.25 0.249,0.531 -0.509,0.989 -0.589,1.111 0,0 0.053,0.219 0.236,-0.026 C 0.726,1.119 1.134,0.519 1.404,0.551 1.889,0.609 1.544,0.163 1.231,0.273 0.918,0.383 1.11,0.247 0.673,0.14 Z"
             style="fill:#7eb341;fill-opacity:1;fill-rule:nonzero;stroke:none"
             id="path492" />
        </g>
        <g
           id="g494"
           transform="translate(185.2437,288.714)">
          <path
             d="m 0,0 c 0.007,-0.484 -0.021,-0.987 -0.112,-1.359 -0.016,-0.08 -0.039,-0.152 -0.065,-0.217 -0.009,-0.03 -0.021,-0.06 -0.035,-0.088 -0.014,0.002 -0.03,0.004 -0.046,0.007 h -0.003 c -0.095,0.011 -0.191,0.025 -0.284,0.039 -0.081,0.012 -0.16,0.026 -0.239,0.04 -0.087,0.014 -0.173,0.03 -0.259,0.046 -0.025,0.005 -0.053,0.01 -0.081,0.017 -0.024,0.004 -0.049,0.009 -0.075,0.016 -0.002,0 -0.007,0 -0.011,0.002 -0.045,0.007 -0.091,0.019 -0.138,0.028 H -1.35 c -0.047,0.012 -0.096,0.021 -0.144,0.035 -0.077,0.019 -0.156,0.037 -0.233,0.056 v 0.002 l -0.082,0.342 -0.689,2.873 -0.011,0.049 -0.012,0.046 c 0,0 0.044,0.075 0.133,0.173 0.016,0.018 0.032,0.039 0.053,0.058 0.019,0.023 0.04,0.042 0.063,0.063 0.007,0.009 0.016,0.018 0.026,0.023 0.046,0.047 0.1,0.088 0.16,0.13 0.019,0.014 0.038,0.028 0.058,0.045 h 0.003 c 0.07,0.048 0.144,0.104 0.228,0.156 h 0.002 c 0.112,0.069 0.238,0.13 0.377,0.153 0.082,0.014 0.168,0.014 0.259,-0.005 h 0.002 c 0.028,-0.004 0.056,-0.011 0.084,-0.02 h 0.002 C -0.906,2.658 -0.766,2.577 -0.649,2.474 -0.622,2.451 -0.596,2.426 -0.573,2.398 -0.268,2.074 -0.135,1.574 -0.07,1.038 -0.058,0.964 -0.051,0.889 -0.044,0.815 -0.033,0.682 -0.023,0.547 -0.014,0.414 -0.007,0.282 -0.002,0.142 0,0"
             style="fill:#006912;fill-opacity:1;fill-rule:nonzero;stroke:none"
             id="path496" />
        </g>
        <g
           id="g498"
           transform="translate(184.266,289.2517)">
          <path
             d="m 0,0 c 0.007,-0.223 0,-0.468 -0.03,-0.74 -0.044,-0.415 -0.086,-0.738 -0.131,-0.992 -0.018,-0.116 -0.039,-0.216 -0.06,-0.305 -0.002,0 -0.007,0 -0.012,0.003 -0.044,0.007 -0.091,0.018 -0.137,0.027 h -0.002 c -0.047,0.012 -0.096,0.021 -0.145,0.035 -0.077,0.019 -0.156,0.038 -0.233,0.056 -0.079,0.019 -0.156,0.04 -0.235,0.063 -0.593,0.158 -1.168,0.361 -1.722,0.603 -0.082,0.161 -0.133,0.298 -0.17,0.419 -0.023,0.07 -0.042,0.133 -0.058,0.193 -0.003,0.007 -0.005,0.012 -0.005,0.019 -0.002,0.007 -0.005,0.014 -0.007,0.021 -0.016,0.058 -0.033,0.111 -0.051,0.165 -0.005,0.019 -0.012,0.035 -0.017,0.051 -0.034,0.091 -0.076,0.179 -0.139,0.273 -0.023,0.039 -0.051,0.079 -0.084,0.121 -0.023,0.03 -0.044,0.06 -0.063,0.093 -0.009,0.016 -0.018,0.032 -0.028,0.051 -0.004,0.009 -0.009,0.021 -0.014,0.03 0,0.003 -0.002,0.005 -0.002,0.007 -0.016,0.037 -0.03,0.07 -0.04,0.107 v 0.005 c -0.016,0.056 -0.025,0.114 -0.03,0.17 V 0.48 c 0,0.027 -0.002,0.053 -0.002,0.079 v 0.002 c 0,0.035 0.002,0.065 0.007,0.1 0,0.007 0,0.014 0.002,0.023 0,0.007 0,0.014 0.002,0.021 0.045,0.308 0.226,0.582 0.478,0.659 0,0 0.1,0.002 0.26,0.012 0.054,0.002 0.112,0.007 0.177,0.014 h 0.003 c 0.069,0.004 0.144,0.011 0.221,0.021 0.093,0.011 0.193,0.023 0.293,0.039 0.044,0.007 0.088,0.014 0.133,0.021 0.004,0.003 0.007,0.003 0.011,0.003 0.142,0.025 0.284,0.058 0.419,0.095 0.031,0.009 0.061,0.016 0.089,0.028 0.011,0.002 0.021,0.005 0.03,0.009 0.035,0.009 0.07,0.023 0.103,0.037 0.072,0.024 0.139,0.054 0.202,0.087 0.019,0.011 0.042,0.016 0.065,0.016 0.012,0.002 0.023,0.005 0.035,0.002 0.079,-0.004 0.175,-0.039 0.275,-0.114 0.06,-0.046 0.125,-0.107 0.186,-0.186 C -0.212,1.18 -0.023,0.717 0,0"
             style="fill:#006912;fill-opacity:1;fill-rule:nonzero;stroke:none"
             id="path500" />
        </g>
        <g
           id="g502">
          <g
             id="g504" />
          <g
             id="g516">
            <g
               clip-path="url(#clipPath508)"
               opacity="0.25"
               id="g514">
              <g
                 transform="translate(182.4225,290.3415)"
                 id="g512">
                <path
                   d="m 0,0 c 0,0 -0.914,0.285 -1.128,-0.316 -0.214,-0.601 0.234,-1.375 0.374,-1.578 0.139,-0.202 -0.353,1.141 0.108,1.533 C -0.195,0.022 0.007,-0.092 0,0"
                   style="fill:#00500b;fill-opacity:1;fill-rule:nonzero;stroke:none"
                   id="path510" />
              </g>
            </g>
          </g>
        </g>
        <g
           id="g518">
          <g
             id="g520" />
          <g
             id="g532">
            <g
               clip-path="url(#clipPath524)"
               opacity="0.25"
               id="g530">
              <g
                 transform="translate(183.6059,291.3132)"
                 id="g528">
                <path
                   d="M 0,0 C 0,0 0.828,0.248 1.17,-0.687 1.512,-1.621 0.821,0.056 0,0"
                   style="fill:#00500b;fill-opacity:1;fill-rule:nonzero;stroke:none"
                   id="path526" />
              </g>
            </g>
          </g>
        </g>
        <g
           id="g534"
           transform="translate(187.2292,290.2061)">
          <path
             d="m 0,0 c 0,0 0,-0.005 -0.002,-0.014 -0.005,-0.019 -0.012,-0.056 -0.021,-0.112 -0.003,-0.011 -0.007,-0.028 -0.01,-0.042 0,-0.004 0,-0.007 -0.002,-0.011 v -0.003 c -0.009,-0.051 -0.021,-0.114 -0.035,-0.183 -0.044,-0.233 -0.109,-0.557 -0.179,-0.913 -0.077,-0.389 -0.165,-0.817 -0.247,-1.206 -0.032,-0.16 -0.067,-0.314 -0.098,-0.456 -0.004,-0.021 -0.009,-0.042 -0.016,-0.063 -0.019,-0.088 -0.037,-0.174 -0.056,-0.251 -0.23,0 -0.461,0.007 -0.689,0.023 -0.049,0.002 -0.095,0.005 -0.142,0.009 h -0.002 c -0.042,0 -0.086,0.005 -0.128,0.007 h -0.002 c -0.147,0.012 -0.291,0.026 -0.436,0.045 -0.014,0 -0.028,0.002 -0.042,0.004 -0.018,0.03 -0.037,0.063 -0.056,0.098 -0.041,0.074 -0.081,0.156 -0.118,0.24 -0.161,0.361 -0.268,0.789 -0.247,1.206 0.007,0.125 0.021,0.242 0.044,0.349 0.058,0.27 0.163,0.486 0.294,0.661 0.041,0.056 0.086,0.109 0.135,0.158 0.197,0.203 0.43,0.34 0.654,0.454 0.153,0.077 0.34,0.109 0.528,0.114 0.265,0.009 0.531,-0.035 0.698,-0.072 0.042,-0.009 0.08,-0.016 0.108,-0.023 C -0.026,0.007 0,0 0,0"
             style="fill:#ef6c00;fill-opacity:1;fill-rule:nonzero;stroke:none"
             id="path536" />
        </g>
        <g
           id="g538"
           transform="translate(189.8899,288.6046)">
          <path
             d="M 0,0 C 0.007,-0.154 -0.002,-0.307 -0.026,-0.459 -0.049,-0.622 -0.091,-0.784 -0.142,-0.938 -0.17,-1.017 -0.2,-1.096 -0.23,-1.171 -0.249,-1.215 -0.27,-1.257 -0.289,-1.299 -0.3,-1.304 -0.312,-1.306 -0.324,-1.308 H -0.326 C -0.496,-1.35 -0.67,-1.387 -0.843,-1.42 h -0.002 c -0.086,-0.019 -0.177,-0.033 -0.265,-0.049 -0.012,0 -0.021,-0.002 -0.033,-0.005 C -1.145,-1.476 -1.15,-1.476 -1.152,-1.476 -1.162,-1.478 -1.169,-1.48 -1.176,-1.48 H -1.178 C -1.199,-1.485 -1.22,-1.487 -1.238,-1.49 -1.269,-1.494 -1.294,-1.499 -1.325,-1.504 H -1.327 C -1.334,-1.506 -1.343,-1.506 -1.35,-1.508 H -1.352 C -1.432,-1.52 -1.508,-1.532 -1.59,-1.541 -1.597,-1.543 -1.604,-1.543 -1.613,-1.546 -1.629,-1.548 -1.646,-1.55 -1.662,-1.55 l -0.037,-0.005 c -0.003,-0.002 -0.005,-0.002 -0.005,0 -0.023,-0.005 -0.042,-0.007 -0.065,-0.009 -0.014,-0.003 -0.028,-0.005 -0.042,-0.005 -0.021,-0.002 -0.042,-0.005 -0.063,-0.007 -0.021,0.096 -0.044,0.198 -0.07,0.31 -0.011,0.051 -0.023,0.104 -0.032,0.158 -0.028,0.121 -0.054,0.247 -0.082,0.377 -0.116,0.556 -0.237,1.171 -0.328,1.632 -0.026,0.128 -0.049,0.247 -0.068,0.347 -0.004,0.021 -0.009,0.042 -0.011,0.063 -0.009,0.039 -0.016,0.074 -0.021,0.107 -0.002,0.009 -0.002,0.016 -0.005,0.023 v 0.002 c -0.011,0.061 -0.021,0.107 -0.028,0.138 -0.004,0.027 -0.007,0.041 -0.007,0.041 0,0 0.04,0.012 0.11,0.031 0.065,0.014 0.158,0.032 0.265,0.049 0.116,0.018 0.254,0.035 0.393,0.035 0.177,0.004 0.359,-0.012 0.515,-0.068 0.042,-0.012 0.079,-0.028 0.116,-0.047 0.026,-0.011 0.049,-0.025 0.075,-0.037 0.028,-0.016 0.053,-0.03 0.081,-0.044 C -0.84,1.466 -0.708,1.38 -0.584,1.276 -0.277,1.01 -0.03,0.626 0,0"
             style="fill:#ef6c00;fill-opacity:1;fill-rule:nonzero;stroke:none"
             id="path540" />
        </g>
        <g
           id="g542"
           transform="translate(188.0044,287.7689)">
          <path
             d="M 0,0 C -0.033,-0.098 -0.063,-0.189 -0.091,-0.272 -0.109,-0.331 -0.126,-0.386 -0.144,-0.44 -0.182,-0.566 -0.212,-0.673 -0.235,-0.764 -0.268,-0.768 -0.298,-0.771 -0.331,-0.773 h -0.002 c -0.025,-0.002 -0.053,-0.004 -0.079,-0.007 -0.028,-0.002 -0.054,-0.004 -0.082,-0.007 -0.037,-0.002 -0.074,-0.004 -0.111,-0.007 -0.056,-0.004 -0.112,-0.007 -0.168,-0.009 -0.011,0 -0.025,0 -0.037,-0.002 h -0.028 c -0.158,-0.007 -0.317,-0.01 -0.477,-0.012 -0.019,0.074 -0.042,0.158 -0.07,0.251 -0.005,0.021 -0.009,0.042 -0.016,0.063 -0.042,0.142 -0.096,0.307 -0.161,0.503 -0.114,0.333 -0.128,0.601 -0.098,0.868 0.033,0.301 0.124,0.603 0.193,0.997 v 0.002 c 0.028,0.156 0.084,0.27 0.152,0.351 0.042,0.049 0.088,0.087 0.137,0.117 0.065,0.037 0.133,0.06 0.2,0.074 0.049,0.01 0.098,0.014 0.142,0.014 h 0.054 0.005 c 0.044,0.003 0.093,0 0.144,-0.007 0.032,-0.004 0.067,-0.011 0.102,-0.021 0.047,-0.014 0.096,-0.032 0.142,-0.06 h 0.003 C -0.363,2.321 -0.338,2.302 -0.317,2.284 -0.289,2.26 -0.263,2.235 -0.237,2.204 -0.175,2.123 -0.123,2.011 -0.098,1.865 0.035,1.12 0.24,0.71 0,0"
             style="fill:#ef6c00;fill-opacity:1;fill-rule:nonzero;stroke:none"
             id="path544" />
        </g>
        <g
           id="g546"
           transform="translate(187.2257,290.8626)">
          <path
             d="M 0,0 C 0.158,0.349 0.489,0.566 0.845,0.596 1.058,0.309 1.114,-0.082 0.956,-0.432 0.799,-0.78 0.468,-0.997 0.112,-1.027 -0.101,-0.74 -0.157,-0.348 0,0"
             style="fill:#7eb341;fill-opacity:1;fill-rule:nonzero;stroke:none"
             id="path548" />
        </g>
        <g
           id="g550"
           transform="translate(189.1171,288.2088)">
          <path
             d="m 0,0 c -0.03,-0.121 -0.065,-0.254 -0.107,-0.391 -0.03,-0.112 -0.068,-0.228 -0.107,-0.342 -0.037,-0.114 -0.079,-0.228 -0.124,-0.34 -0.011,0 -0.02,-0.002 -0.032,-0.005 -0.002,-0.002 -0.007,-0.002 -0.009,-0.002 -0.01,-0.002 -0.017,-0.005 -0.024,-0.005 h -0.002 c -0.021,-0.004 -0.042,-0.007 -0.061,-0.009 -0.03,-0.005 -0.055,-0.009 -0.086,-0.014 H -0.554 C -0.561,-1.11 -0.57,-1.11 -0.577,-1.113 H -0.58 C -0.659,-1.124 -0.736,-1.136 -0.817,-1.145 -0.824,-1.148 -0.831,-1.148 -0.84,-1.15 -0.857,-1.152 -0.873,-1.155 -0.889,-1.155 l -0.037,-0.004 c -0.003,-0.003 -0.005,-0.003 -0.005,0 -0.023,-0.005 -0.042,-0.007 -0.065,-0.01 C -1.01,-1.171 -1.024,-1.173 -1.038,-1.173 -1.059,-1.176 -1.08,-1.178 -1.101,-1.18 -1.148,-1.187 -1.194,-1.192 -1.241,-1.194 -1.276,-1.199 -1.313,-1.201 -1.348,-1.203 -1.38,-1.208 -1.411,-1.21 -1.443,-1.213 H -1.446 C -1.471,-1.215 -1.499,-1.217 -1.525,-1.22 -1.553,-1.222 -1.578,-1.224 -1.606,-1.227 -1.643,-1.229 -1.681,-1.231 -1.718,-1.234 v 3.073 c 0,0 0.023,0.009 0.063,0.019 0.039,0.011 0.093,0.025 0.154,0.037 h 0.002 c 0.028,0.005 0.056,0.009 0.086,0.014 0.081,0.009 0.172,0.014 0.263,0.007 0.126,-0.01 0.249,-0.047 0.345,-0.128 C -0.768,1.755 -0.724,1.713 -0.677,1.664 -0.591,1.578 -0.498,1.471 -0.405,1.348 -0.203,1.075 -0.014,0.726 0.023,0.37 0.035,0.247 0.03,0.123 0,0"
             style="fill:#ef6c00;fill-opacity:1;fill-rule:nonzero;stroke:none"
             id="path552" />
        </g>
        <g
           id="g554"
           transform="translate(187.2483,290.8738)">
          <path
             d="m 0,0 c 0.241,-0.298 0.286,-0.691 0.153,-1.023 -0.352,-0.061 -0.728,0.065 -0.969,0.363 -0.24,0.297 -0.285,0.69 -0.151,1.021 C -0.616,0.423 -0.24,0.297 0,0"
             style="fill:#7eb341;fill-opacity:1;fill-rule:nonzero;stroke:none"
             id="path556" />
        </g>
        <g
           id="g558"
           transform="translate(187.8024,289.567)">
          <path
             d="M 0,0 C -0.075,0.424 -0.384,0.481 -0.58,0.472 -0.775,0.481 -1.084,0.424 -1.16,0 c -0.112,-0.632 -0.285,-0.979 -0.081,-1.58 0.204,-0.602 1.119,-0.602 1.323,0 C 0.285,-0.979 0.112,-0.632 0,0"
             style="fill:#ef6c00;fill-opacity:1;fill-rule:nonzero;stroke:none"
             id="path560" />
        </g>
        <g
           id="g562"
           transform="translate(187.1944,290.0268)">
          <path
             d="m 0,0 v -3.063 h -0.028 c -0.158,-0.007 -0.317,-0.01 -0.477,-0.012 h -0.126 c -0.23,0 -0.461,0.007 -0.689,0.023 -0.046,0.103 -0.088,0.212 -0.128,0.322 -0.112,0.304 -0.205,0.626 -0.27,0.891 -0.037,0.151 -0.037,0.305 -0.009,0.459 0.044,0.27 0.172,0.533 0.323,0.758 0.166,0.254 0.361,0.461 0.489,0.571 0.075,0.065 0.17,0.102 0.27,0.119 0.093,0.016 0.189,0.016 0.277,0.009 C -0.312,0.072 -0.258,0.063 -0.21,0.054 -0.133,0.04 -0.072,0.021 -0.035,0.009 -0.012,0.005 0,0 0,0"
             style="fill:#f67c00;fill-opacity:1;fill-rule:nonzero;stroke:none"
             id="path564" />
        </g>
        <g
           id="g566"
           transform="translate(195.0181,290.1246)">
          <path
             d="m 0,0 c -0.17,-0.151 -0.347,-0.298 -0.526,-0.44 -0.042,-0.033 -0.086,-0.067 -0.13,-0.102 -0.049,-0.035 -0.096,-0.073 -0.145,-0.107 -0.004,-0.005 -0.011,-0.007 -0.016,-0.012 l -0.002,-0.002 c -0.35,-0.261 -0.71,-0.503 -1.085,-0.724 0,0 0,-0.003 -0.002,-0.003 -0.077,-0.046 -0.156,-0.093 -0.236,-0.137 h -0.002 c -0.079,-0.047 -0.154,-0.088 -0.233,-0.13 0,-0.003 -0.004,-0.003 -0.004,-0.003 -0.079,-0.042 -0.159,-0.084 -0.24,-0.125 -0.04,-0.021 -0.079,-0.04 -0.119,-0.061 -0.004,-0.002 -0.007,-0.005 -0.011,-0.005 -0.066,-0.032 -0.131,-0.065 -0.196,-0.095 h -0.002 c -0.103,-0.049 -0.203,-0.096 -0.308,-0.14 -0.002,0 -0.004,0 -0.007,-0.002 -0.139,-0.065 -0.279,-0.123 -0.421,-0.179 -0.002,-0.003 -0.002,-0.003 -0.005,0 -0.002,-0.003 -0.002,-0.003 -0.004,0 -0.003,-0.003 -0.003,-0.003 -0.005,0 -0.002,-0.003 -0.002,-0.003 -0.005,0 -0.002,-0.003 -0.004,0 -0.004,0 C -4.197,-2.465 -4.681,-2.63 -5.193,-2.761 -5.268,-2.784 -5.342,-2.803 -5.417,-2.819 -5.428,-2.824 -5.44,-2.826 -5.452,-2.828 H -5.454 C -5.624,-2.87 -5.799,-2.907 -5.971,-2.94 h -0.002 c -0.086,-0.019 -0.177,-0.033 -0.265,-0.049 -0.012,0 -0.021,-0.002 -0.033,-0.005 -0.002,-0.002 -0.007,-0.002 -0.009,-0.002 -0.01,-0.002 -0.017,-0.005 -0.024,-0.005 H -6.306 C -6.327,-3.005 -6.348,-3.008 -6.367,-3.01 -6.397,-3.014 -6.422,-3.019 -6.453,-3.024 H -6.455 C -6.462,-3.026 -6.471,-3.026 -6.478,-3.028 H -6.481 C -6.56,-3.04 -6.637,-3.052 -6.718,-3.061 -6.725,-3.063 -6.732,-3.063 -6.741,-3.066 -6.758,-3.068 -6.774,-3.07 -6.79,-3.07 l -0.037,-0.005 c -0.003,-0.002 -0.005,-0.002 -0.005,0 -0.023,-0.005 -0.042,-0.007 -0.065,-0.009 -0.014,-0.003 -0.028,-0.005 -0.042,-0.005 -0.021,-0.002 -0.042,-0.005 -0.063,-0.007 -0.047,-0.007 -0.093,-0.012 -0.14,-0.014 -0.035,-0.005 -0.072,-0.007 -0.107,-0.009 -0.032,-0.005 -0.063,-0.007 -0.095,-0.01 H -7.347 C -7.372,-3.131 -7.4,-3.133 -7.426,-3.136 -7.454,-3.138 -7.479,-3.14 -7.507,-3.143 -7.544,-3.145 -7.582,-3.147 -7.619,-3.15 c -0.056,-0.004 -0.112,-0.006 -0.167,-0.009 -0.012,0 -0.026,0 -0.038,-0.002 H -7.852 C -8.01,-3.168 -8.168,-3.17 -8.329,-3.173 h -0.126 c -0.23,0 -0.46,0.007 -0.689,0.023 -0.048,0.003 -0.095,0.005 -0.142,0.01 h -0.002 c -0.042,0 -0.086,0.004 -0.128,0.007 h -0.002 c -0.147,0.011 -0.291,0.025 -0.436,0.044 -0.014,0 -0.028,0.002 -0.041,0.005 -0.031,0.002 -0.061,0.007 -0.091,0.009 -0.014,0.002 -0.031,0.005 -0.047,0.007 h -0.002 c -0.096,0.012 -0.191,0.026 -0.284,0.04 -0.082,0.011 -0.161,0.025 -0.24,0.039 -0.086,0.014 -0.172,0.03 -0.258,0.047 -0.026,0.004 -0.054,0.009 -0.082,0.016 -0.023,0.005 -0.049,0.009 -0.074,0.016 -0.003,0 -0.007,0 -0.012,0.003 -0.044,0.007 -0.091,0.018 -0.137,0.028 h -0.003 c -0.046,0.011 -0.095,0.02 -0.144,0.034 -0.077,0.019 -0.156,0.038 -0.233,0.056 -0.079,0.019 -0.156,0.04 -0.235,0.063 -0.593,0.158 -1.168,0.361 -1.722,0.603 -0.079,0.033 -0.159,0.07 -0.238,0.105 -0.17,0.079 -0.337,0.16 -0.5,0.244 -0.701,0.361 -1.362,0.785 -1.979,1.262 -0.042,0.032 -0.084,0.065 -0.126,0.1 -0.051,0.04 -0.102,0.081 -0.153,0.126 -0.165,0.132 -0.328,0.272 -0.487,0.416 -0.035,0.031 -0.067,0.063 -0.1,0.093 -0.028,0.026 -0.053,0.052 -0.081,0.077 -0.242,0.226 -0.473,0.464 -0.696,0.71 l 0.233,0.21 c 0.19,-0.21 0.386,-0.415 0.591,-0.61 0.025,-0.026 0.051,-0.051 0.079,-0.077 0.03,-0.028 0.06,-0.056 0.093,-0.086 0.014,-0.012 0.028,-0.026 0.042,-0.04 0.067,-0.06 0.135,-0.121 0.202,-0.181 0.047,-0.04 0.091,-0.079 0.138,-0.119 0.6,-0.512 1.247,-0.968 1.939,-1.359 0.063,-0.035 0.123,-0.07 0.186,-0.103 0.224,-0.123 0.452,-0.24 0.687,-0.349 0.605,-0.282 1.24,-0.517 1.897,-0.698 0.049,-0.017 0.098,-0.031 0.149,-0.042 0.163,-0.044 0.328,-0.084 0.493,-0.121 0.024,-0.007 0.047,-0.012 0.07,-0.017 0.023,-0.004 0.047,-0.009 0.068,-0.013 0.004,-0.003 0.007,-0.003 0.009,-0.003 0.009,-0.002 0.021,-0.004 0.03,-0.007 0.033,-0.007 0.065,-0.014 0.1,-0.018 0.04,-0.01 0.077,-0.017 0.117,-0.021 0.002,-0.003 0.007,-0.005 0.009,-0.003 0.07,-0.014 0.142,-0.028 0.214,-0.039 0.086,-0.014 0.17,-0.028 0.256,-0.04 h 0.003 c 0.049,-0.009 0.095,-0.016 0.144,-0.021 h 0.002 c 0.061,-0.009 0.121,-0.016 0.182,-0.023 0.098,-0.012 0.193,-0.023 0.291,-0.033 0.035,-0.002 0.07,-0.007 0.105,-0.009 0.072,-0.007 0.146,-0.012 0.218,-0.016 0.073,-0.007 0.142,-0.012 0.215,-0.014 h 0.018 l 0.121,-0.007 0.175,-0.007 c 0.107,-0.003 0.219,-0.003 0.328,-0.003 h 0.033 c 0.09,0 0.179,0 0.27,0.003 0.097,0.002 0.193,0.007 0.288,0.011 0.051,0 0.103,0.005 0.154,0.007 h 0.007 c 0.002,0 0.002,0 0.002,0.003 0.014,0 0.028,0 0.042,0.002 0.012,0 0.021,0.002 0.033,0.002 h 0.002 c 0.005,-0.002 0.009,0 0.014,0 h 0.005 c 0.025,0.003 0.053,0.003 0.079,0.005 h 0.002 c 0.009,0.002 0.021,0.002 0.03,0.005 h 0.003 c 0.011,0 0.023,0 0.035,0.002 0.023,0 0.044,0.002 0.067,0.005 0.019,0 0.035,0.002 0.054,0.004 h 0.014 c 0.007,0.003 0.016,0.003 0.023,0.003 0.016,0.002 0.033,0.002 0.049,0.004 0.007,0 0.011,0.003 0.018,0.003 0.012,0 0.021,0.002 0.033,0.004 0.028,0 0.058,0.005 0.086,0.01 0.04,0.002 0.077,0.007 0.117,0.011 0.039,0.005 0.081,0.01 0.121,0.014 0.035,0.005 0.069,0.01 0.102,0.014 0.04,0.005 0.077,0.01 0.114,0.016 0.051,0.007 0.105,0.014 0.156,0.024 0.063,0.009 0.126,0.018 0.189,0.03 0.051,0.009 0.107,0.019 0.158,0.028 h 0.005 c 0.032,0.007 0.06,0.014 0.093,0.019 h 0.002 c 0.035,0.007 0.072,0.014 0.107,0.023 0.089,0.016 0.177,0.035 0.265,0.058 0.01,0 0.017,0.002 0.026,0.005 h 0.002 c 0.021,0.004 0.042,0.009 0.063,0.016 h 0.003 c 0.095,0.021 0.186,0.044 0.279,0.07 0.009,0.002 0.021,0.005 0.03,0.007 h 0.002 c 0.031,0.007 0.063,0.016 0.094,0.025 h 0.002 c 0.098,0.026 0.193,0.054 0.291,0.084 h 0.002 c 0.098,0.03 0.193,0.058 0.289,0.093 0.014,0.003 0.025,0.007 0.039,0.012 h 0.007 c 0.017,0.005 0.026,0.012 0.042,0.016 0.014,0.005 0.026,0.01 0.04,0.014 h 0.002 c 0.063,0.019 0.126,0.042 0.189,0.063 0.039,0.014 0.079,0.028 0.118,0.042 L -4.12,-2.1 h 0.002 c 0.051,0.019 0.1,0.04 0.151,0.058 h 0.005 c 0.068,0.026 0.133,0.054 0.203,0.082 0.011,0.005 0.021,0.009 0.032,0.014 0.035,0.014 0.07,0.028 0.105,0.042 0.088,0.037 0.175,0.074 0.263,0.114 h 0.002 c 0.021,0.009 0.045,0.019 0.065,0.03 h 0.003 c 0.035,0.014 0.067,0.03 0.102,0.047 0.061,0.03 0.124,0.058 0.184,0.088 0.005,0.003 0.009,0.005 0.014,0.007 0.023,0.012 0.042,0.021 0.061,0.033 h 0.002 c 0.047,0.023 0.088,0.049 0.137,0.072 l 0.003,0.002 c 0.002,-0.002 0.002,-0.002 0.004,0 0.003,-0.002 0.003,-0.002 0.005,0 0.051,0.026 0.102,0.051 0.151,0.079 0.005,0.003 0.01,0.005 0.014,0.01 h 0.003 c 0.02,0.009 0.039,0.018 0.06,0.032 h 0.002 c 0.033,0.017 0.063,0.033 0.096,0.052 0.205,0.111 0.405,0.228 0.6,0.351 0.033,0.019 0.066,0.04 0.096,0.061 0.002,0 0.002,0.002 0.004,0.002 0.028,0.018 0.059,0.035 0.084,0.053 0.003,0 0.003,0.003 0.003,0.003 0.335,0.216 0.656,0.449 0.968,0.696 0.03,0.023 0.063,0.049 0.093,0.074 v 0.003 c 0.012,0.009 0.023,0.016 0.035,0.027 0.014,0.012 0.03,0.024 0.044,0.038 0.107,0.086 0.212,0.177 0.317,0.267 z"
             style="fill:#000000;fill-opacity:1;fill-rule:nonzero;stroke:none"
             id="path568" />
        </g>
        <g
           id="g570"
           transform="translate(171.4515,306.5785)">
          <path
             d="m 0,0 -0.153,0.631 c 3.001,5.406 8.765,9.065 15.386,9.065 2.326,0 4.543,-0.453 6.577,-1.272 L 21.571,8.049 C 19.611,8.833 17.476,9.26 15.233,9.26 8.777,9.26 2.923,5.271 0,0"
             style="fill:#000000;fill-opacity:1;fill-rule:nonzero;stroke:none"
             id="path572" />
        </g>
        <g
           id="g574"
           transform="translate(204.2653,298.6933)">
          <path
             d="m 0,0 c 0,-9.71 -7.871,-17.577 -17.581,-17.577 -6.996,0 -13.038,4.086 -15.869,10.002 l 0.396,0.187 c 2.758,-5.772 8.651,-9.753 15.473,-9.753 4.735,0 9.021,1.917 12.123,5.018 3.101,3.106 5.022,7.388 5.022,12.123 0,4.735 -1.921,9.021 -5.022,12.123 -1.224,1.224 -2.631,2.265 -4.182,3.075 l 0.235,0.366 C -3.812,12.624 0,6.756 0,0"
             style="fill:#000000;fill-opacity:1;fill-rule:nonzero;stroke:none"
             id="path576" />
        </g>
        <g
           id="g578"
           transform="translate(196.026,309.7689)">
          <path
             d="M 0,0 -1.946,-3.008 -1.948,-3.012 -2.279,-3.471 -2.281,-3.473 -2.286,-3.48 c -1.033,-1.299 -2.514,-2.009 -3.932,-2.009 -0.421,0 -0.835,0.063 -1.233,0.191 -0.938,0.798 -1.437,2.006 -1.437,3.31 0,0.796 0.187,1.627 0.575,2.412 0.003,0.004 0.005,0.007 0.007,0.011 l 0.331,0.582 1.892,2.922 0.932,-0.606 4.143,-2.681 z"
             style="fill:#bfa346;fill-opacity:1;fill-rule:nonzero;stroke:none"
             id="path580" />
        </g>
        <g
           id="g582"
           transform="translate(193.0674,307.1967)">
          <path
             d="M 0,0 -0.002,-0.005 -0.333,-0.463 -0.335,-0.466 -0.34,-0.473 c -1.033,-1.298 -2.514,-2.008 -3.931,-2.008 -0.422,0 -0.836,0.062 -1.234,0.19 -0.938,0.799 -1.436,2.007 -1.436,3.311 0,0.796 0.186,1.627 0.574,2.411 0.003,0.005 0.005,0.007 0.007,0.012 l 0.331,0.582 1.893,2.921 0.931,-0.605 4.143,-2.682 1.008,-0.651 z m 1.176,4.025 -1.5,0.97 -0.365,0.238 -2.279,1.476 -1.299,0.84 L -6.401,4.253 -6.748,3.641 -6.751,3.636 C -7.172,2.789 -7.377,1.888 -7.377,1.02 c 0,-1.427 0.554,-2.78 1.623,-3.671 l 0.032,-0.028 0.04,-0.012 c 0.456,-0.154 0.931,-0.226 1.411,-0.226 1.566,0 3.168,0.782 4.278,2.181 0.002,0.003 0.005,0.007 0.007,0.01 0.119,0.146 0.23,0.302 0.335,0.465 l 0.012,0.017 0.002,0.004 2.186,3.375 z"
             style="fill:#000000;fill-opacity:1;fill-rule:nonzero;stroke:none"
             id="path584" />
        </g>
        <g
           id="g586"
           transform="translate(192.6245,312.0098)">
          <path
             d="M 0,0 3.401,5.253 3.036,5.49 -0.366,0.237 Z"
             style="fill:#000000;fill-opacity:1;fill-rule:nonzero;stroke:none"
             id="path588" />
        </g>
        <g
           id="g590"
           transform="translate(197.7911,322.229)">
          <path
             d="m 0,0 1.808,-1.171 -3.246,-5.014 -1.809,1.171 z"
             style="fill:#000000;fill-opacity:1;fill-rule:nonzero;stroke:none"
             id="path592" />
        </g>
        <g
           id="g594"
           transform="translate(183.8935,285.7809)">
          <path
             d="m 0,0 -0.331,-1.057 -1.224,0.38 0.333,1.061 -0.442,0.14 -0.799,-2.551 0.442,-0.136 0.336,1.071 1.222,-0.381 -0.335,-1.074 0.444,-0.139 0.801,2.546 z"
             style="fill:#bfa346;fill-opacity:1;fill-rule:nonzero;stroke:none"
             id="path596" />
        </g>
        <g
           id="g598"
           transform="translate(170.2294,291.7448)">
          <path
             d="m 0,0 c -0.123,-1.208 -0.34,-1.811 -0.647,-1.811 -0.144,0 -0.261,0.049 -0.354,0.14 -0.051,0.06 -0.091,0.13 -0.121,0.214 -0.093,0.288 -0.14,0.607 -0.14,0.964 0,0.945 0.464,1.953 1.383,3.028 C 0.109,1.48 0.07,0.635 0,0 M 1.318,8.154 C 1.35,8.503 1.392,8.776 1.45,8.976 1.506,9.176 1.546,9.29 1.571,9.311 1.599,9.339 1.62,9.351 1.641,9.351 1.785,9.351 1.89,9.237 1.965,9.006 2.035,8.776 2.069,8.494 2.069,8.168 2.069,7.84 2.014,7.442 1.895,6.972 1.776,6.499 1.606,6.071 1.38,5.682 1.327,5.591 1.271,5.508 1.21,5.438 1.231,6.718 1.266,7.621 1.318,8.154 M 4.721,8.722 C 4.602,8.753 4.528,8.713 4.497,8.601 4.437,8.373 4.358,8.15 4.258,7.931 4.202,7.784 4.132,7.64 4.053,7.495 3.855,7.137 3.599,6.762 3.271,6.374 2.942,5.985 2.663,5.675 2.442,5.438 2.214,5.203 1.881,4.87 1.441,4.439 1.42,4.416 1.385,4.381 1.327,4.325 1.271,4.267 1.227,4.23 1.197,4.206 1.206,4.465 1.21,4.653 1.21,4.774 1.415,5.002 1.599,5.272 1.764,5.591 v 0.014 c 0.021,0.042 0.04,0.082 0.061,0.121 0.135,0.28 0.249,0.578 0.344,0.892 0.098,0.319 0.168,0.607 0.21,0.868 0.04,0.263 0.063,0.489 0.063,0.682 0,0.494 -0.07,0.873 -0.21,1.143 C 2.095,9.588 1.895,9.723 1.632,9.723 1.371,9.723 1.148,9.623 0.964,9.421 0.782,9.22 0.638,8.971 0.528,8.673 0.419,8.382 0.335,7.998 0.275,7.535 0.214,7.067 0.175,6.634 0.154,6.234 0.13,5.836 0.121,5.368 0.121,4.835 0.016,4.828 -0.088,4.823 -0.2,4.823 c -0.747,0 -1.329,0.366 -1.734,1.104 -0.473,0.852 -0.708,2.162 -0.708,3.931 0,1.699 0.328,3.166 0.982,4.393 0.266,0.489 0.545,0.873 0.843,1.145 0.298,0.27 0.547,0.405 0.738,0.405 0.268,0 0.493,-0.151 0.677,-0.463 0.184,-0.305 0.28,-0.654 0.294,-1.043 V 14.22 c 0,-0.798 -0.343,-1.506 -1.015,-2.118 -0.096,-0.081 -0.1,-0.17 -0.017,-0.254 0.082,-0.086 0.17,-0.09 0.261,-0.007 0.757,0.685 1.136,1.476 1.136,2.379 v 0.091 c -0.005,0.398 -0.051,0.748 -0.149,1.045 -0.056,0.184 -0.13,0.345 -0.216,0.489 -0.04,0.065 -0.084,0.124 -0.128,0.18 -0.315,0.393 -0.694,0.588 -1.136,0.588 -0.396,0 -0.804,-0.165 -1.218,-0.505 -0.414,-0.337 -0.791,-0.805 -1.131,-1.399 -0.747,-1.357 -1.118,-3 -1.118,-4.911 0,-1.26 0.131,-2.321 0.389,-3.18 0.261,-0.861 0.645,-1.506 1.152,-1.948 0.508,-0.44 1.136,-0.659 1.884,-0.659 0.181,0 0.36,0.025 0.535,0.074 V 3.089 C -0.433,2.481 -0.861,1.892 -1.171,1.315 -1.476,0.736 -1.629,0.133 -1.629,-0.493 c -0.031,-0.45 0.03,-0.834 0.183,-1.148 0.205,-0.594 0.529,-0.892 0.969,-0.892 0.223,0 0.428,0.075 0.607,0.233 0.18,0.151 0.324,0.38 0.438,0.68 0.03,0.084 0.061,0.163 0.086,0.249 0.065,0.193 0.123,0.398 0.175,0.607 0.014,0.04 0.023,0.08 0.03,0.119 0.079,0.349 0.14,0.778 0.184,1.292 0.039,0.512 0.07,0.992 0.093,1.441 0.021,0.452 0.04,0.98 0.061,1.581 C 1.28,3.752 1.446,3.922 1.704,4.176 2.144,4.618 2.479,4.963 2.717,5.207 2.952,5.452 3.24,5.775 3.576,6.171 3.878,6.529 4.123,6.874 4.313,7.216 4.341,7.26 4.367,7.298 4.388,7.342 4.595,7.719 4.746,8.108 4.851,8.508 4.881,8.622 4.84,8.692 4.721,8.722"
             style="fill:#bfa346;fill-opacity:1;fill-rule:nonzero;stroke:none"
             id="path600" />
        </g>
        <g
           id="g602"
           transform="translate(181.0606,300.4577)">
          <path
             d="M 0,0 C -0.035,0.035 -0.079,0.058 -0.133,0.058 H -0.805 C -0.917,0.058 -1.02,0.1 -1.106,0.193 -1.194,0.284 -1.304,0.438 -1.439,0.656 -1.529,0.831 -1.608,0.961 -1.674,1.052 -1.739,1.145 -1.839,1.259 -1.967,1.39 -2.093,1.525 -2.242,1.62 -2.412,1.683 -2.577,1.743 -2.77,1.774 -2.989,1.774 -3.294,1.774 -3.594,1.62 -3.892,1.315 -4.19,1.01 -4.455,0.556 -4.69,-0.04 -4.7,-0.056 -4.704,-0.075 -4.704,-0.081 -4.94,-0.698 -5.128,-1.422 -5.258,-2.263 c -0.268,1.062 -0.263,2.172 0.011,3.315 0.035,0.124 0.035,0.233 0,0.333 -0.03,0.095 -0.077,0.175 -0.144,0.228 -0.065,0.056 -0.142,0.1 -0.235,0.13 C -5.771,1.788 -5.92,1.778 -6.066,1.72 -6.215,1.664 -6.308,1.569 -6.35,1.439 -6.534,0.936 -6.609,0.228 -6.578,-0.689 c 0,-0.03 0.004,-0.061 0.004,-0.093 0.01,-0.256 0.031,-0.494 0.056,-0.715 0.068,-0.542 0.184,-0.991 0.354,-1.35 0.079,-0.154 0.203,-0.284 0.368,-0.393 0.16,-0.105 0.323,-0.161 0.475,-0.161 0.063,0 0.118,0.012 0.172,0.035 0.091,0.04 0.14,0.109 0.151,0.214 v 0.012 c 0.124,1.159 0.333,2.137 0.629,2.935 v 0.014 c 0.337,0.808 0.652,1.213 0.935,1.213 0.105,0 0.189,-0.03 0.25,-0.091 0.06,-0.06 0.135,-0.174 0.225,-0.337 0.063,-0.112 0.11,-0.196 0.149,-0.252 0.035,-0.058 0.098,-0.137 0.184,-0.233 0.089,-0.095 0.175,-0.17 0.263,-0.221 0.086,-0.053 0.2,-0.098 0.345,-0.142 0.144,-0.037 0.295,-0.06 0.458,-0.06 h 1.427 c 0.054,0 0.098,0.018 0.133,0.058 0.035,0.035 0.051,0.077 0.051,0.126 C 0.051,-0.077 0.035,-0.035 0,0"
             style="fill:#bfa346;fill-opacity:1;fill-rule:nonzero;stroke:none"
             id="path604" />
        </g>
        <g
           id="g606"
           transform="translate(183.8633,298.9958)">
          <path
             d="m 0,0 c -0.021,0.009 -0.044,0.009 -0.061,0 -0.123,-0.023 -0.228,-0.079 -0.309,-0.17 -0.079,-0.093 -0.119,-0.198 -0.105,-0.307 0.007,-0.112 0.061,-0.2 0.151,-0.261 -0.081,-0.114 -0.174,-0.223 -0.274,-0.323 L -0.615,-1.08 c 0,-0.007 -0.004,-0.012 -0.014,-0.012 -0.053,-0.053 -0.109,-0.095 -0.169,-0.139 -0.184,-0.133 -0.378,-0.203 -0.568,-0.203 -0.268,0 -0.478,0.168 -0.624,0.494 -0.149,0.328 -0.224,0.777 -0.224,1.35 0,0.412 0.082,0.782 0.24,1.115 0.158,0.335 0.354,0.579 0.589,0.745 0.237,0.163 0.482,0.244 0.738,0.244 0.244,0 0.447,-0.17 0.598,-0.505 C 0.065,1.711 0.123,1.357 0.123,0.952 0.123,0.61 0.084,0.296 0,0 M 2.856,1.471 C 2.751,1.541 2.663,1.527 2.593,1.422 2.521,1.318 2.442,1.213 2.349,1.113 2.118,0.838 1.839,0.568 1.511,0.296 1.057,-0.079 0.633,-0.31 0.244,-0.403 0.398,0 0.477,0.449 0.477,0.952 0.477,1.387 0.419,1.776 0.305,2.118 V 2.13 L 0.293,2.149 V 2.16 C 0.196,2.398 0.084,2.598 -0.061,2.758 -0.205,2.926 -0.358,3.042 -0.514,3.122 -0.673,3.201 -0.843,3.236 -1.013,3.236 -1.497,3.236 -1.93,3.075 -2.309,2.756 -2.696,2.433 -2.977,2.055 -3.156,1.625 -3.17,1.59 -3.189,1.555 -3.196,1.52 -3.25,1.392 -3.289,1.271 -3.315,1.148 -3.389,0.887 -3.424,0.624 -3.424,0.365 c 0,-0.244 0.018,-0.474 0.053,-0.689 0.035,-0.218 0.082,-0.398 0.145,-0.547 0.06,-0.146 0.13,-0.281 0.209,-0.4 0.075,-0.119 0.161,-0.214 0.261,-0.289 0.095,-0.079 0.193,-0.144 0.284,-0.19 0.093,-0.054 0.188,-0.094 0.289,-0.119 0.104,-0.026 0.193,-0.04 0.263,-0.044 0.072,-0.005 0.146,-0.01 0.23,-0.01 0.459,0 0.882,0.173 1.257,0.508 0.198,0.174 0.359,0.379 0.494,0.614 0.472,0.04 0.982,0.282 1.543,0.722 C 1.909,0.161 2.174,0.4 2.407,0.633 2.598,0.829 2.761,1.022 2.9,1.208 2.975,1.315 2.956,1.401 2.856,1.471"
             style="fill:#bfa346;fill-opacity:1;fill-rule:nonzero;stroke:none"
             id="path608" />
        </g>
        <g
           id="g610"
           transform="translate(192.9696,299.0261)">
          <path
             d="m 0,0 v 0.014 c -0.189,0.256 -0.293,0.684 -0.314,1.283 -0.028,0.598 0.042,1.152 0.205,1.664 0.114,0.379 0.244,0.568 0.398,0.568 0.072,0 0.13,-0.023 0.17,-0.061 C 0.54,3.385 0.58,3.236 0.58,3.021 0.58,2.398 0.389,1.39 0,0 M 2.938,1.432 C 2.852,1.52 2.768,1.52 2.686,1.427 2.637,1.376 2.589,1.322 2.544,1.276 2.349,1.066 2.179,0.899 2.039,0.773 1.865,0.615 1.676,0.454 1.471,0.289 1.266,0.126 1.073,0.009 0.889,-0.061 0.703,-0.135 0.519,-0.17 0.335,-0.17 0.747,1.285 0.952,2.344 0.952,3.021 0.952,3.34 0.873,3.576 0.719,3.729 0.605,3.843 0.463,3.899 0.289,3.899 -0.049,3.899 -0.298,3.62 -0.463,3.07 -0.638,2.568 -0.712,1.979 -0.687,1.297 -0.661,0.615 -0.528,0.114 -0.293,-0.2 c 0.053,-0.084 0.114,-0.149 0.184,-0.203 l -0.019,-0.03 c -0.161,-0.549 -0.326,-1.022 -0.489,-1.411 -0.205,-0.419 -0.363,-0.633 -0.475,-0.633 -0.07,0 -0.144,0.049 -0.214,0.14 -0.289,0.328 -0.507,1.045 -0.656,2.148 -0.147,1.111 -0.175,2.005 -0.082,2.691 0.03,0.184 0.005,0.336 -0.079,0.459 -0.079,0.121 -0.184,0.2 -0.305,0.23 C -2.551,3.215 -2.67,3.196 -2.782,3.145 -2.896,3.096 -2.97,3.01 -3.01,2.886 -3.024,2.886 -3.026,2.877 -3.026,2.87 -3.035,2.838 -3.04,2.812 -3.04,2.791 -3.075,2.691 -3.129,2.493 -3.21,2.209 -3.529,1.061 -3.792,0.223 -3.992,-0.31 -4.036,-0.403 -4.076,-0.498 -4.118,-0.603 -4.295,-0.961 -4.425,-1.166 -4.516,-1.215 -4.7,-1.206 -4.874,-1.113 -5.04,-0.938 -5.307,-0.619 -5.494,-0.114 -5.612,0.589 -5.731,1.287 -5.747,1.925 -5.668,2.502 -5.647,2.696 -5.673,2.852 -5.752,2.97 -5.831,3.087 -5.931,3.161 -6.057,3.191 -6.19,3.224 -6.311,3.205 -6.429,3.145 -6.548,3.082 -6.62,2.991 -6.653,2.87 -6.723,2.672 -6.765,2.402 -6.783,2.048 -6.797,1.744 -6.788,1.42 -6.758,1.082 c 0.005,-0.051 0.01,-0.109 0.014,-0.16 0.014,-0.105 0.026,-0.214 0.045,-0.319 0.046,-0.298 0.116,-0.598 0.209,-0.896 0.126,-0.41 0.289,-0.748 0.484,-1.013 0.305,-0.433 0.682,-0.647 1.122,-0.647 0.368,0 0.731,0.389 1.087,1.166 v 0.03 c 0.014,0.014 0.019,0.024 0.019,0.033 0.191,0.431 0.4,1.024 0.628,1.781 0.021,-0.738 0.105,-1.45 0.254,-2.139 0.149,-0.696 0.363,-1.229 0.638,-1.609 0.265,-0.365 0.575,-0.549 0.933,-0.549 0.054,0 0.101,0.004 0.149,0.014 0.045,0.011 0.124,0.065 0.236,0.16 0.114,0.096 0.223,0.231 0.323,0.405 0.1,0.175 0.233,0.447 0.384,0.808 0.154,0.363 0.307,0.801 0.459,1.315 h 0.093 c 0.424,0 0.824,0.14 1.213,0.419 0.293,0.214 0.628,0.508 1.012,0.882 0.133,0.124 0.263,0.259 0.403,0.403 0.079,0.091 0.079,0.179 -0.009,0.266"
             style="fill:#bfa346;fill-opacity:1;fill-rule:nonzero;stroke:none"
             id="path612" />
        </g>
        <g
           id="g614"
           transform="translate(202.5508,300.4973)">
          <path
             d="M 0,0 C -0.114,0.054 -0.198,0.023 -0.249,-0.091 -0.268,-0.144 -0.293,-0.21 -0.324,-0.293 -0.931,-1.695 -1.471,-2.742 -1.953,-3.44 l -0.012,-0.014 v -0.017 c -0.097,-0.123 -0.179,-0.233 -0.263,-0.337 -0.174,-0.191 -0.309,-0.291 -0.402,-0.291 -0.047,0 -0.087,0.016 -0.105,0.046 -0.061,0.061 -0.1,0.163 -0.117,0.305 -0.014,0.145 -0.014,0.342 0.01,0.587 0.021,0.244 0.042,0.449 0.06,0.619 0.021,0.17 0.056,0.407 0.11,0.717 0.081,0.594 0.139,1.043 0.174,1.357 0.035,0.312 0.035,0.666 0,1.057 C -2.533,0.987 -2.63,1.276 -2.782,1.46 -2.945,1.655 -3.166,1.753 -3.441,1.753 -3.953,1.753 -4.42,1.366 -4.839,0.598 -4.849,0.589 -4.851,0.577 -4.851,0.568 -4.965,0.377 -5.07,0.149 -5.163,-0.109 c 0,-0.007 -0.005,-0.012 -0.012,-0.012 -0.228,-0.617 -0.407,-1.341 -0.537,-2.181 -0.268,1.061 -0.263,2.172 0.014,3.315 0.041,0.174 0.02,0.323 -0.054,0.447 C -5.831,1.581 -5.941,1.664 -6.085,1.704 -6.227,1.748 -6.371,1.743 -6.52,1.69 -6.669,1.639 -6.765,1.541 -6.804,1.399 -6.953,1.01 -7.028,0.477 -7.037,-0.196 c -0.007,-0.162 -0.002,-0.332 0,-0.512 v -0.011 c 0.033,-0.922 0.172,-1.639 0.417,-2.149 0.081,-0.167 0.205,-0.298 0.37,-0.403 0.163,-0.1 0.319,-0.153 0.477,-0.153 0.061,0 0.116,0.009 0.165,0.03 0.105,0.04 0.154,0.119 0.154,0.233 0.144,1.401 0.414,2.528 0.815,3.375 0.018,0.023 0.035,0.049 0.044,0.079 0.237,0.459 0.472,0.689 0.708,0.689 0.053,0 0.088,-0.011 0.109,-0.042 0.04,-0.044 0.074,-0.104 0.1,-0.188 0.023,-0.079 0.035,-0.189 0.035,-0.319 V 0.061 c 0,-0.112 -0.005,-0.261 -0.021,-0.454 -0.014,-0.187 -0.026,-0.34 -0.04,-0.45 -0.009,-0.114 -0.025,-0.279 -0.044,-0.493 -0.105,-0.603 -0.151,-1.218 -0.149,-1.844 0.005,-0.624 0.119,-1.052 0.333,-1.287 0.154,-0.165 0.349,-0.244 0.584,-0.244 0.315,0 0.661,0.218 1.027,0.658 l 0.019,0.031 c 0.079,0.083 0.156,0.179 0.225,0.293 0,0.009 0.01,0.018 0.019,0.03 0.489,0.694 1.057,1.786 1.704,3.271 0.037,0.093 0.065,0.153 0.077,0.184 C 0.14,-0.13 0.109,-0.051 0,0"
             style="fill:#bfa346;fill-opacity:1;fill-rule:nonzero;stroke:none"
             id="path616" />
        </g>
        <g
           id="g618"
           transform="translate(178.9237,286.2209)">
          <path
             d="m 0,0 c -0.065,-0.04 -0.135,-0.065 -0.205,-0.082 -0.074,-0.013 -0.144,-0.018 -0.214,-0.004 -0.07,0.011 -0.13,0.039 -0.189,0.077 -0.095,0.07 -0.151,0.158 -0.169,0.258 -0.017,0.105 0.009,0.21 0.088,0.314 0.051,0.07 0.114,0.128 0.179,0.168 0.065,0.042 0.135,0.07 0.205,0.086 0.075,0.014 0.144,0.014 0.214,0 C -0.021,0.803 0.04,0.773 0.095,0.733 0.189,0.663 0.24,0.577 0.258,0.473 0.275,0.368 0.244,0.263 0.175,0.168 0.123,0.098 0.065,0.044 0,0 M 1.436,0.559 C 1.401,0.757 1.325,0.952 1.21,1.141 1.096,1.329 0.947,1.49 0.761,1.629 0.573,1.769 0.368,1.86 0.154,1.909 -0.065,1.958 -0.279,1.965 -0.489,1.934 -0.698,1.899 -0.899,1.83 -1.087,1.718 -1.28,1.608 -1.441,1.459 -1.576,1.276 -1.711,1.092 -1.804,0.892 -1.855,0.682 -1.904,0.468 -1.913,0.254 -1.881,0.044 c 0.035,-0.214 0.107,-0.414 0.221,-0.607 0.114,-0.196 0.273,-0.366 0.468,-0.51 0.158,-0.119 0.319,-0.207 0.48,-0.259 0.163,-0.055 0.333,-0.095 0.502,-0.109 l 0.014,0.13 c -0.167,0.019 -0.323,0.059 -0.467,0.11 -0.145,0.053 -0.294,0.135 -0.445,0.244 -0.179,0.138 -0.324,0.289 -0.428,0.463 -0.11,0.18 -0.175,0.364 -0.205,0.555 -0.028,0.193 -0.019,0.386 0.03,0.577 0.047,0.198 0.135,0.375 0.256,0.547 0.128,0.17 0.272,0.305 0.447,0.405 0.17,0.105 0.349,0.174 0.54,0.205 0.193,0.03 0.389,0.023 0.582,-0.021 C 0.31,1.729 0.498,1.643 0.673,1.511 0.847,1.385 0.987,1.231 1.087,1.061 1.192,0.892 1.262,0.717 1.292,0.533 1.327,0.349 1.325,0.17 1.29,-0.005 1.255,-0.184 1.185,-0.34 1.08,-0.484 1.001,-0.589 0.926,-0.673 0.843,-0.733 0.764,-0.798 0.687,-0.843 0.612,-0.864 0.538,-0.889 0.463,-0.899 0.398,-0.889 c -0.07,0.007 -0.13,0.032 -0.188,0.077 -0.075,0.053 -0.117,0.118 -0.131,0.188 -0.014,0.07 0.005,0.14 0.051,0.205 0.01,0.014 0.028,0.03 0.045,0.053 0.023,0.017 0.044,0.042 0.069,0.066 L 0.947,0.377 0.687,0.642 0.512,0.484 C 0.517,0.577 0.503,0.668 0.468,0.766 0.433,0.861 0.358,0.947 0.249,1.031 0.158,1.096 0.058,1.141 -0.056,1.162 -0.165,1.185 -0.279,1.185 -0.398,1.162 -0.514,1.145 -0.629,1.101 -0.733,1.036 -0.843,0.971 -0.933,0.882 -1.013,0.777 -1.078,0.687 -1.127,0.598 -1.148,0.503 -1.171,0.412 -1.178,0.324 -1.162,0.233 c 0.014,-0.089 0.045,-0.172 0.089,-0.245 0.046,-0.079 0.109,-0.144 0.186,-0.202 0.11,-0.079 0.219,-0.126 0.324,-0.14 0.109,-0.012 0.214,-0.012 0.309,0.005 -0.007,-0.084 0.01,-0.175 0.054,-0.27 0.044,-0.096 0.121,-0.193 0.244,-0.28 0.079,-0.058 0.166,-0.097 0.261,-0.118 0.098,-0.021 0.193,-0.021 0.293,0 0.1,0.021 0.2,0.07 0.308,0.144 0.104,0.07 0.204,0.17 0.295,0.3 0.119,0.159 0.198,0.338 0.235,0.533 0.04,0.198 0.04,0.398 0,0.599"
             style="fill:#bfa346;fill-opacity:1;fill-rule:nonzero;stroke:none"
             id="path620" />
        </g>
        <g
           id="g622"
           transform="translate(187.9998,284.063)">
          <path
             d="M 0,0 C 0,-0.13 -0.023,-0.251 -0.065,-0.365 -0.109,-0.48 -0.17,-0.58 -0.244,-0.668 c -0.08,-0.082 -0.175,-0.151 -0.284,-0.2 -0.11,-0.051 -0.233,-0.079 -0.364,-0.079 -0.13,0 -0.253,0.023 -0.363,0.074 -0.114,0.049 -0.209,0.119 -0.288,0.2 -0.082,0.089 -0.142,0.184 -0.187,0.303 -0.048,0.114 -0.069,0.235 -0.069,0.368 v 0.007 c 0,0.128 0.021,0.249 0.065,0.367 0.044,0.114 0.1,0.215 0.179,0.301 0.079,0.084 0.17,0.153 0.284,0.202 0.109,0.051 0.226,0.077 0.361,0.077 0.133,0 0.254,-0.026 0.363,-0.074 0.114,-0.052 0.209,-0.117 0.289,-0.201 0.079,-0.086 0.144,-0.186 0.188,-0.3 C -0.023,0.263 0,0.137 0,0.009 Z M 0.389,0.552 C 0.319,0.717 0.221,0.861 0.1,0.985 -0.023,1.11 -0.17,1.206 -0.342,1.276 -0.512,1.35 -0.698,1.385 -0.906,1.38 -1.11,1.38 -1.301,1.341 -1.469,1.269 -1.639,1.194 -1.788,1.092 -1.909,0.966 -2.037,0.84 -2.128,0.691 -2.197,0.526 -2.263,0.358 -2.298,0.179 -2.298,-0.007 v -0.009 c 0.005,-0.189 0.04,-0.363 0.11,-0.529 0.07,-0.165 0.165,-0.309 0.289,-0.437 0.121,-0.121 0.27,-0.219 0.439,-0.291 0.17,-0.07 0.359,-0.105 0.564,-0.105 0.205,0.002 0.393,0.037 0.563,0.116 0.17,0.075 0.319,0.175 0.442,0.303 0.121,0.126 0.217,0.27 0.287,0.44 0.067,0.165 0.102,0.34 0.097,0.533 v 0.005 c 0,0.188 -0.034,0.367 -0.104,0.533"
             style="fill:#bfa346;fill-opacity:1;fill-rule:nonzero;stroke:none"
             id="path624" />
        </g>
        <g
           id="g626"
           transform="translate(192.3131,286.5142)">
          <path
             d="m 0,0 -0.47,-0.163 -0.359,-1.457 -1.18,0.926 -0.47,-0.163 0.868,-2.523 0.442,0.151 -0.626,1.804 1.201,-0.912 0.014,0.009 0.384,1.462 0.624,-1.806 0.443,0.149 z"
             style="fill:#bfa346;fill-opacity:1;fill-rule:nonzero;stroke:none"
             id="path628" />
        </g>
        <g
           id="g630"
           transform="translate(196.5684,286.598)">
          <path
             d="m 0,0 -1.245,-0.892 -0.415,0.58 1.092,0.778 -0.249,0.346 -1.087,-0.777 -0.403,0.559 1.232,0.877 -0.25,0.345 -1.606,-1.148 1.555,-2.172 1.62,1.157 z"
             style="fill:#bfa346;fill-opacity:1;fill-rule:nonzero;stroke:none"
             id="path632" />
        </g>
      </g>
    </g>
  </g>
</svg>
